<svg width="260" height="52" viewBox="0 0 260 52" fill="none" xmlns="http://www.w3.org/2000/svg">
<path d="M126.116 0H126.625L127.181 1.94796H127.189L128.426 0H129.003L128.473 3.01675H127.909L128.232 1.18084H128.223L127.284 2.59441H126.922L126.482 1.18084H126.474L126.151 3.01675H125.586L126.116 0Z" fill="white"/>
<path d="M124.198 0.495609H123.297L123.383 0H125.771L125.68 0.495609H124.784L124.34 3.01675H123.754L124.198 0.495609Z" fill="white"/>
<mask id="mask0_3123_2493" style="mask-type:alpha" maskUnits="userSpaceOnUse" x="0" y="0" width="121" height="52">
<rect y="0.0913086" width="121" height="51" fill="#D9D9D9"/>
</mask>
<g mask="url(#mask0_3123_2493)">
<mask id="mask1_3123_2493" style="mask-type:alpha" maskUnits="userSpaceOnUse" x="-18" y="-43" width="141" height="168">
<rect x="52.5742" y="-42.0674" width="79.0651" height="146.965" transform="rotate(28.3033 52.5742 -42.0674)" fill="#D9D9D9"/>
</mask>
<g mask="url(#mask1_3123_2493)">
<path d="M71.9525 0.304688H126.25L121.824 8.5069H80.226L77.801 22.3437H102.981L99.5562 30.5459H76.3745L74.6271 40.3885L73.7534 45.3099L72.8797 50.2312H63.1797L71.9525 0.304688Z" fill="white"/>
<path d="M-43.2584 0.304688H58.04L65.6003 9.4341L59.6805 42.8849L50.979 50.2312H-52.0312L-43.2584 0.304688ZM46.4856 41.9576L50.765 38.3201L55.401 12.2157L52.4055 8.57822H-34.9849L-40.9048 41.9576H46.4856Z" fill="white"/>
</g>
</g>
<path d="M125.48 23.8913H132.072L133.64 25.7953L132.296 33.4593L130.376 35.0913H123.512L125.48 23.8913ZM129.704 33.7473L130.872 32.7553L132.024 26.2273L131.208 25.2353H126.776L125.288 33.7473H129.704ZM134.182 33.6673L134.518 31.7153L136.086 30.4033H140.294L140.518 29.0593L139.958 28.3713H137.35L136.518 29.0593L136.422 29.6513H134.934L135.126 28.6273L136.886 27.1233H140.742L142.07 28.7393L140.95 35.0913H139.558L139.782 33.7793L138.182 35.0913H135.366L134.182 33.6673ZM138.182 33.8593L139.942 32.4193L140.086 31.5873H136.582L135.926 32.1473L135.718 33.3153L136.182 33.8593H138.182ZM144.512 27.1233H145.936L145.68 28.5153L147.312 27.1233H149.44L149.2 28.4193H147.456L145.472 30.1153L144.592 35.0913H143.104L144.512 27.1233ZM151.433 23.6673H152.937L151.721 30.2913H153.337L156.137 27.1233H157.881L154.521 30.9633L156.633 35.0913H155.081L153.289 31.6033H151.497L150.873 35.0913H149.385L151.433 23.6673ZM164.105 23.8913H171.465L171.225 25.2353H165.401L164.761 28.9473H169.801L169.577 30.2913H164.521L163.673 35.0913H162.137L164.105 23.8913ZM171.996 27.1233H173.42L173.164 28.5153L174.796 27.1233H176.924L176.684 28.4193H174.94L172.956 30.1153L172.076 35.0913H170.588L171.996 27.1233ZM176.591 33.5073L177.455 28.5313L179.119 27.1233H183.407L184.735 28.7393L183.871 33.7153L182.255 35.0913H177.903L176.591 33.5073ZM181.647 33.7953L182.495 33.0913L183.183 29.1233L182.591 28.4193H179.711L178.863 29.1233L178.159 33.0913L178.751 33.7953H181.647ZM187.105 27.1233H188.529L188.241 28.6753L190.081 27.1233H192.497L193.873 28.7713L192.753 35.0913H191.265L192.321 29.1393L191.713 28.4193H190.209L188.033 30.2753L187.185 35.0913H185.697L187.105 27.1233ZM195.768 33.5073L196.664 28.4033H195.224L195.448 27.1233H196.92L197.384 24.5313H198.84L198.376 27.1233H200.84L200.616 28.4193H198.152L197.336 33.0913L197.928 33.7953H199.672L199.448 35.0913H197.08L195.768 33.5073ZM202.783 25.3473L202.927 24.5473L203.583 23.9713H204.431L204.895 24.5473L204.751 25.3793L204.111 25.9233H203.247L202.783 25.3473ZM202.703 27.1233H204.207L202.799 35.0913H201.295L202.703 27.1233ZM205.31 33.5073L206.174 28.5313L207.838 27.1233H212.062L213.39 28.7393L212.894 31.5713H207.15L206.878 33.1073L207.454 33.8113H210.318L211.134 33.1233L211.23 32.5793H212.718L212.51 33.6993L210.878 35.0913H206.606L205.31 33.5073ZM211.614 30.4033L211.838 29.1073L211.262 28.4033H208.43L207.582 29.1073L207.358 30.4033H211.614ZM215.683 27.1233H217.107L216.851 28.5153L218.483 27.1233H220.611L220.371 28.4193H218.627L216.643 30.1153L215.763 35.0913H214.275L215.683 27.1233ZM220.178 33.6193L220.354 32.7073H221.826L221.73 33.2993L222.178 33.8273H224.994L225.634 33.2993L225.81 32.2433L225.362 31.6833H221.97L220.818 30.2913L221.154 28.3873L222.642 27.1233H226.546L227.794 28.6113L227.618 29.5073H226.13L226.242 28.9153L225.794 28.3873H223.186L222.546 28.9153L222.37 29.9073L222.818 30.4673H226.194L227.362 31.8913L227.026 33.8273L225.538 35.0913H221.394L220.178 33.6193ZM123.848 47.1873L125.48 37.8913H127.016L125.448 46.7553L126.28 47.7473H129.736L130.904 46.7553L132.488 37.8913H134.024L132.328 47.4113L130.36 49.0913H125.416L123.848 47.1873ZM135.762 41.1233H137.186L136.898 42.6753L138.738 41.1233H141.154L142.53 42.7713L141.41 49.0913H139.922L140.978 43.1393L140.37 42.4193H138.866L136.69 44.2753L135.842 49.0913H134.354L135.762 41.1233ZM145.22 39.3473L145.364 38.5473L146.02 37.9713H146.868L147.332 38.5473L147.188 39.3793L146.548 39.9233H145.684L145.22 39.3473ZM145.14 41.1233H146.644L145.236 49.0913H143.732L145.14 41.1233ZM148.067 41.1233H149.555L150.627 47.4913H150.691L154.003 41.1233H155.603L151.235 49.0913H149.635L148.067 41.1233ZM155.45 47.5073L156.314 42.5313L157.978 41.1233H162.202L163.53 42.7393L163.034 45.5713H157.29L157.018 47.1073L157.594 47.8113H160.458L161.274 47.1233L161.37 46.5793H162.858L162.65 47.6993L161.018 49.0913H156.746L155.45 47.5073ZM161.754 44.4033L161.978 43.1073L161.402 42.4033H158.57L157.722 43.1073L157.498 44.4033H161.754ZM165.824 41.1233H167.248L166.992 42.5153L168.624 41.1233H170.752L170.512 42.4193H168.768L166.784 44.1153L165.904 49.0913H164.416L165.824 41.1233ZM170.319 47.6193L170.495 46.7073H171.967L171.871 47.2993L172.319 47.8273H175.135L175.775 47.2993L175.951 46.2433L175.503 45.6833H172.111L170.959 44.2913L171.295 42.3873L172.783 41.1233H176.687L177.935 42.6113L177.759 43.5073H176.271L176.383 42.9153L175.935 42.3873H173.327L172.687 42.9153L172.511 43.9073L172.959 44.4673H176.335L177.503 45.8913L177.167 47.8273L175.679 49.0913H171.535L170.319 47.6193ZM178.903 47.5073L179.767 42.5313L181.431 41.1233H185.655L186.983 42.7393L186.487 45.5713H180.743L180.471 47.1073L181.047 47.8113H183.911L184.727 47.1233L184.823 46.5793H186.311L186.103 47.6993L184.471 49.0913H180.199L178.903 47.5073ZM185.207 44.4033L185.431 43.1073L184.855 42.4033H182.023L181.175 43.1073L180.951 44.4033H185.207Z" fill="white"/>
</svg>
