<svg width="111" height="64" viewBox="0 0 111 64" fill="none" xmlns="http://www.w3.org/2000/svg">
<path fill-rule="evenodd" clip-rule="evenodd" d="M90.4195 6.40531C90.4195 2.55942 87.0731 -0.419173 83.2777 0.0484215L5.59338 9.61915C2.39994 10.0126 0 12.7401 0 15.976V35.5218C0 38.3453 2.47006 40.524 5.25324 40.1554C8.03643 39.7869 10.5065 41.9656 10.5065 44.7891V57.5946C10.5065 61.4532 13.8739 64.4357 17.6795 63.9476L105.234 52.7183C108.413 52.3105 110.796 49.5891 110.796 46.3653V28.7651C110.796 24.9751 107.541 22.0141 103.792 22.3928L95.6722 23.2127C92.8602 23.4967 90.4195 21.276 90.4195 18.4335V6.40531ZM76.2884 43.8883C75.2789 44.022 74.6577 43.474 74.6577 42.4762V38.6003C74.6577 38.2466 74.9403 37.9224 75.289 37.8763L77.4172 37.5945C77.7658 37.5483 78.0485 37.2241 78.0485 36.8704V34.3702C78.0485 34.0164 77.7658 33.7671 77.4172 33.8133L75.1855 34.1088C74.8368 34.155 74.5542 33.9057 74.5542 33.552V30.7103C74.5542 30.3566 74.2715 30.1073 73.9229 30.1535L73.8174 30.1674C73.6434 30.1905 73.4771 30.2854 73.3578 30.4297L67.9625 36.9566V35.6532C67.9625 35.2994 67.6799 35.0501 67.3312 35.0963L66.6683 35.1841C65.3815 35.3545 64.3757 35.7729 63.5299 36.5538C63.1717 36.8845 62.617 36.8857 62.4194 36.4971L62.2593 36.1822C62.1539 35.9749 61.933 35.8636 61.6909 35.8957L59.4828 36.1881C59.1341 36.2342 58.8515 36.5584 58.8515 36.9121V49.8106C58.8515 50.1643 59.1341 50.4136 59.4828 50.3674L63.0345 49.8971C63.3832 49.8509 63.6658 49.5268 63.6658 49.1731V42.6188C63.6658 40.807 64.3906 39.9496 66.073 39.7268L67.3312 39.5602C67.6765 39.5145 67.957 39.1961 67.9624 38.8464L69.212 38.6809C69.5607 38.6348 69.8433 38.8841 69.8433 39.2378V43.9277C69.8433 47.0787 71.7328 48.7453 74.813 48.3375L77.4948 47.9824C77.8435 47.9362 78.1261 47.612 78.1261 47.2583V44.2854C78.1261 43.9317 77.8435 43.6824 77.4948 43.7286L76.2884 43.8883ZM37.9201 47.3408C37.9201 48.3386 38.5413 48.8866 39.5507 48.7529L40.7572 48.5931C41.1058 48.547 41.3885 48.7963 41.3885 49.15V52.1229C41.3885 52.4766 41.1058 52.8008 40.7572 52.847L38.0754 53.2021C34.9952 53.6099 33.1057 51.9433 33.1057 48.7923V44.1024C33.1057 43.7487 32.823 43.4993 32.4744 43.5455L31.1745 43.7176C31.0418 43.7352 30.9187 43.71 30.8171 43.6525L30.8191 43.6659C30.8714 44.0134 30.5822 44.3475 30.229 44.3943L26.9737 44.8253C26.625 44.8715 26.3667 44.6028 26.2179 44.3026C26.0007 43.8645 25.5155 43.7055 24.8929 43.7879C24.1164 43.8908 23.5987 44.3532 23.5987 45.0096C23.5987 45.7974 24.6599 45.8669 25.98 45.9284L26.0619 45.9321C28.277 46.0302 31.1308 46.1565 31.1308 49.684C31.1308 52.6512 28.6719 54.9199 24.9446 55.4134C21.4149 55.8808 19.1771 54.4145 18.8306 51.7527C18.7852 51.4037 19.0736 51.0705 19.4265 51.0238L22.7862 50.5789C23.1349 50.5327 23.398 50.7958 23.5235 51.1092C23.7564 51.6912 24.3482 51.895 25.0482 51.8023C25.747 51.7098 26.42 51.2531 26.42 50.5178C26.42 49.7038 25.3588 49.608 24.0128 49.5762C21.8386 49.4965 18.9655 49.2205 18.9655 45.7807C18.9655 42.9448 21.3727 40.788 24.9446 40.315C27.7685 39.9411 29.8209 40.8849 30.5659 42.7267C30.593 42.6234 30.6438 42.5242 30.7149 42.4382L36.6201 35.2943C36.7394 35.15 36.9057 35.0551 37.0797 35.032L37.1852 35.0181C37.5339 34.9719 37.8165 35.2212 37.8165 35.5749V38.4165C37.8165 38.7703 38.0992 39.0196 38.4478 38.9734L40.6795 38.6779C41.0282 38.6317 41.3108 38.881 41.3108 39.2347V41.735C41.3108 42.0887 41.0282 42.4129 40.6795 42.459L38.5514 42.7408C38.2027 42.787 37.9201 43.1112 37.9201 43.4649V47.3408ZM53.9012 36.9272C53.6627 36.9587 53.4464 37.129 53.3481 37.3624C53.1823 37.7562 52.7114 37.9261 52.3728 37.7505C51.3433 37.2169 50.1061 37.0095 48.7469 37.1895C44.4761 37.755 41.4218 41.2842 41.4218 45.6693C41.4218 50.0806 44.4761 52.8272 48.7469 52.2616C50.1138 52.0806 51.3534 51.5475 52.3894 50.7342C52.6889 50.4991 53.1046 50.5481 53.2428 50.8628C53.326 51.0523 53.5196 51.157 53.734 51.1286L56.476 50.7655C56.8247 50.7194 57.1073 50.3952 57.1073 50.0415V37.143C57.1073 36.7893 56.8247 36.54 56.476 36.5862L53.9012 36.9272ZM49.394 47.8696C47.5822 48.1096 46.2621 46.8927 46.2621 45.0283C46.2621 43.1903 47.5822 41.6501 49.394 41.4102C51.2059 41.1702 52.5259 42.3609 52.5259 44.1989C52.5259 46.0632 51.2059 47.6297 49.394 47.8696ZM85.7434 32.2644C90.2472 31.668 93.3532 34.5128 93.3532 38.6615C93.3532 38.9155 93.3448 39.162 93.3281 39.4108C93.3061 39.7377 93.0343 40.0167 92.7142 40.0591L83.6614 41.2578C83.2646 41.3103 82.9605 41.722 83.1077 42.0763C83.5561 43.1554 84.4697 43.619 85.7434 43.4503C86.7056 43.3229 87.5517 42.8381 88.0476 42.1285C88.1914 41.9228 88.4001 41.7594 88.6336 41.7285L92.2127 41.2545C92.6377 41.1983 92.941 41.5768 92.7708 41.9944C91.5854 44.9034 88.9342 46.9403 85.7434 47.3628C81.3691 47.942 78.1595 45.1373 78.1595 40.8047C78.1595 36.4721 81.3432 32.8471 85.7434 32.2644ZM88.288 37.1521C87.7699 36.311 86.8957 35.9455 85.7434 36.0981C84.6291 36.2456 83.778 36.8423 83.282 37.8227C83.0807 38.2204 83.3869 38.5895 83.8044 38.5342L87.771 38.009C88.193 37.9531 88.4991 37.4948 88.288 37.1521ZM102.066 30.4969C100.779 30.6673 99.7737 31.0857 98.9278 31.8666C98.5696 32.1973 98.015 32.1985 97.8174 31.8099L97.6572 31.495C97.5518 31.2877 97.331 31.1764 97.0888 31.2085L94.8807 31.5009C94.5321 31.5471 94.2494 31.8712 94.2494 32.2249V45.1234C94.2494 45.4771 94.5321 45.7264 94.8807 45.6802L98.4325 45.2099C98.7811 45.1638 99.0638 44.8396 99.0638 44.4859V37.9316C99.0638 36.1198 99.7885 35.2624 101.471 35.0396L102.729 34.873C103.078 34.8268 103.36 34.5027 103.36 34.149V30.966C103.36 30.6123 103.078 30.363 102.729 30.4091L102.066 30.4969ZM75.2618 10.004C79.7574 9.34837 82.8578 12.1522 82.8578 16.301C82.8578 16.5549 82.8494 16.8016 82.8327 17.0506C82.8108 17.3778 82.5395 17.6603 82.2199 17.7069L73.1835 19.0247C72.7875 19.0825 72.4839 19.4981 72.6309 19.8505C73.0784 20.9238 73.9904 21.3753 75.2618 21.1899C76.2222 21.0498 77.0668 20.5538 77.5618 19.8377C77.7053 19.6301 77.9136 19.464 78.1467 19.43L81.7193 18.909C82.1436 18.8472 82.4463 19.2217 82.2764 19.6416C81.0932 22.5661 78.4468 24.6379 75.2618 25.1024C70.8953 25.7391 67.6916 22.9766 67.6916 18.644C67.6916 14.3114 70.8695 10.6445 75.2618 10.004ZM77.8018 14.8582C77.2846 14.0239 76.412 13.6699 75.2618 13.8377C74.1495 13.9999 73.2999 14.6077 72.8048 15.5946C72.6039 15.995 72.9095 16.3601 73.3263 16.2993L77.2857 15.7219C77.7069 15.6605 78.0125 15.1981 77.8018 14.8582ZM61.9441 11.9986C60.5193 12.2064 59.2171 12.9299 58.2391 13.9787C57.9252 14.3153 57.4114 14.3698 57.1129 14.1062C56.2406 13.3359 55.0399 13.0055 53.6504 13.2081C52.3958 13.3911 51.2204 14.0135 50.2856 14.9257C49.9252 15.2774 49.3498 15.2747 49.1621 14.8692L49.0622 14.6533C48.9615 14.4357 48.7353 14.3188 48.4855 14.3552L46.142 14.697C45.794 14.7477 45.5118 15.0756 45.5118 15.4293V28.3278C45.5118 28.6815 45.794 28.9271 46.142 28.8763L49.6873 28.3593C50.0353 28.3085 50.3175 27.9806 50.3175 27.6269V20.495C50.3175 18.7357 51.0409 17.6849 52.3328 17.4965C53.3404 17.3496 53.883 18.0319 53.883 19.4761V27.107C53.883 27.4607 54.1651 27.7063 54.5131 27.6555L57.9293 27.1573C58.2773 27.1066 58.5594 26.7787 58.5594 26.425V19.2931C58.5594 17.5075 59.2312 16.4905 60.5489 16.2984C61.5824 16.1476 62.0991 16.7813 62.0991 18.278V25.9088C62.0991 26.2625 62.3812 26.5081 62.7293 26.4573L66.2746 25.9403C66.6226 25.8896 66.9047 25.5617 66.9047 25.208V16.9732C66.9047 13.6384 64.9411 11.5616 61.9441 11.9986ZM18.0184 23.7975C18.0184 23.4438 18.3005 23.116 18.6485 23.0652L27.3096 21.8022C27.6576 21.7514 27.9414 21.9976 27.9248 22.3533C27.6591 28.0661 23.861 32.5982 18.4059 33.3937C12.8768 34.2001 8.76878 30.7554 8.76878 25.1624C8.76878 19.5695 12.7993 14.9117 18.3543 14.1016C22.8239 13.4498 26.517 15.5804 27.587 19.2789C27.6939 19.6487 27.3953 20.0566 27.0013 20.1141L22.9314 20.7076C22.6784 20.7445 22.4541 20.6207 22.3298 20.4149C21.5916 19.1923 20.0854 18.5756 18.4059 18.8205C15.6931 19.2162 13.8845 21.4755 13.8845 24.4164C13.8845 27.3311 15.6672 29.0667 18.4059 28.6673C19.9232 28.446 21.2615 27.6556 22.0334 26.5886C22.3176 26.1958 22.0243 25.7764 21.5768 25.8417L18.6485 26.2687C18.3005 26.3194 18.0184 26.0739 18.0184 25.7201V23.7975ZM40.0184 15.952C40.1165 15.7173 40.3325 15.5442 40.5705 15.5095L43.1407 15.1346C43.4887 15.0839 43.7709 15.3295 43.7709 15.6832V28.5816C43.7709 28.9354 43.4887 29.2632 43.1407 29.314L40.4037 29.7131C40.1896 29.7444 39.9963 29.6421 39.9133 29.4537C39.7753 29.1409 39.3604 29.0973 39.0614 29.3364C38.0273 30.1633 36.79 30.7128 35.4256 30.9117C31.1625 31.5334 28.1137 28.8271 28.1137 24.4157C28.1137 20.0306 31.1625 16.4613 35.4256 15.8396C36.7823 15.6418 38.0173 15.8329 39.0449 16.3529C39.3829 16.524 39.8529 16.348 40.0184 15.952ZM32.9452 23.7111C32.9452 25.5755 34.2629 26.775 36.0715 26.5112C37.8801 26.2475 39.1977 24.6636 39.1977 22.7993C39.1977 20.9613 37.8801 19.788 36.0715 20.0517C34.2629 20.3155 32.9452 21.8731 32.9452 23.7111Z" fill="black"/>
</svg>
