<?xml version="1.0" encoding="utf-8"?>
<svg viewBox="-317.292 145.1 324.792 201.681" width="324.792" height="201.681" xmlns="http://www.w3.org/2000/svg">
  <path d="M-282.6 232s-26.9 23.5-33.2 49.3c-9.9 40.3 41.2 45.6 41.2 45.6s-33.8-9.6-28.5-41c4.6-27.4 20.5-53.9 20.5-53.9z" style="fill: rgb(255, 255, 255);"/>
  <path d="M-307.2 321s50.9 23.9 115.6 12.1c64.8-11.8 83.3-20.4 83.3-20.4s-44.6 32-116.2 33.7c-62.5 1.4-82.7-25.4-82.7-25.4zM1.6 231.2c13.8-24.8-.7-52.1-.7-52.1S2.6 210-9.3 230.7c-11.8 20.7-43 42-43 42s40.1-16.8 53.9-41.5z" style="fill: rgb(255, 255, 255);"/>
  <path d="M -184.6 171.5 Z M -39.2 151.4 C -56.9 146.4 -81.8 145.4 -103.4 147.4 C -125.2 149.5 -143.6 154.4 -146.9 155.3 C -150 152.7 -155 148.5 -156.4 147.3 C -159 145.2 -159.8 145 -161.2 145.2 C -161.8 145.3 -176.9 147.9 -179.4 148.5 C -182 149 -183 150.4 -183.1 152.4 C -183.2 154.5 -184.5 171.4 -184.5 171.4 C -184.4 171.6 -173 184 -171.6 185.5 C -170.3 187 -168.7 187.5 -166.3 186.3 C -164 185.2 -150.4 177.9 -149.9 177.6 C -148.7 176.9 -148.1 176.2 -147.4 173 C -147 171.1 -145.5 164.2 -144.7 160.3 C -141.3 159.6 -98.4 150.5 -53 158.2 C -5.8 166.2 -7.1 200.9 -7.1 200.9 C -7.1 200.9 4.9 164 -39.2 151.4 L -39.2 151.4 Z M -150.3 165.4 C -151.6 167 -152.2 167.4 -153.5 168 C -154 168.2 -167.9 174 -170.2 175 C -172.6 176 -174 176 -175 175.6 C -176 175.1 -184.3 171.5 -184.3 171.5 L -144.5 157.8 C -144.4 157.7 -149.2 164 -150.3 165.4 L -150.3 165.4 Z M -278.1 206.1 L -279.3 206.3 L -279.3 304.4 L -254.8 304.4 L -254.8 269.9 C -253.1 270.1 -251.3 270.3 -248.7 270.3 C -234.9 270.3 -223.6 266.6 -216.2 259.7 C -210.2 254.1 -207 245.8 -207 235.7 C -207 226.1 -210.9 217.6 -217.7 212.3 C -224.4 206.8 -234.4 204.1 -248.3 204.1 C -260.1 204.1 -270.1 204.8 -278.1 206.1 L -278.1 206.1 Z M -247.1 223.5 C -237 223.5 -231.4 228 -231.4 236.3 C -231.4 245.2 -237.9 250.5 -248.8 250.5 C -251.4 250.5 -253.2 250.4 -254.7 250.2 L -254.7 223.9 C -253.4 223.8 -251.1 223.5 -247.1 223.5 L -247.1 223.5 Z M -194.6 206.3 L -195.8 206.5 L -195.8 303.8 L -194.6 304 C -189.7 304.7 -181.4 305.4 -169.6 305.4 C -149.8 305.4 -134 301 -123.9 292.6 C -116.4 286.1 -107.5 273.9 -107.5 252.3 C -107.5 235.7 -113.4 222.6 -124.4 214.4 C -133.8 207.2 -146 204.1 -165 204.1 C -176.2 204.1 -186.8 204.8 -194.6 206.3 L -194.6 206.3 Z M -162.7 223.7 C -143.5 223.7 -133.4 233.8 -133.4 253 C -133.4 263.7 -136.2 271.9 -141.8 277.5 C -147.2 282.9 -155 285.6 -165 285.5 C -167 285.5 -169.4 285.5 -171.2 285.3 L -171.2 224.3 C -169.6 224 -166.8 223.7 -162.7 223.7 L -162.7 223.7 Z M -100.3 255.9 C -100.3 286.8 -80.3 306 -48.2 306 C -36.9 306 -27.3 303.8 -22.9 301.7 L -21.9 301.2 L -25.6 281.2 L -27.2 281.9 C -31.6 283.8 -38.6 285 -45 285 C -63.5 285 -74.5 273.7 -74.5 254.8 C -74.5 235.5 -63.5 224 -45.2 224 C -37.1 224 -31 225.9 -27.4 227.5 L -25.9 228.1 L -20.6 208.2 L -21.6 207.7 C -25.6 205.6 -34.4 203.2 -46.1 203.2 C -78.5 203.2 -100.3 224.4 -100.3 255.9 Z M -261.3 363.4 C -269.016 370.227 -257.8 363 -254.9 363 C -252 363 -249.9 363.6 -248.5 364.7 C -247.2 365.7 -246.3 367.5 -246.3 369.5 C -246.3 371.6 -246.9 373.3 -248.2 374.5 C -249.8 376 -252.2 376.7 -255 376.7 C -255.6 376.7 -256.2 376.7 -256.6 376.6 L -256.6 384.1 L -261.3 384.1 L -261.3 363.4 Z M -256.6 372.9 C -256.2 373 -255.7 373 -255 373 C -252.5 373 -250.9 371.7 -250.9 369.6 C -250.9 367.7 -252.2 366.5 -254.6 366.5 C -255.6 366.5 -256.2 366.6 -256.6 366.7 L -256.6 372.9 Z M -243 363.4 C -241.5 363.1 -239.3 362.9 -236.7 362.9 C -233.6 362.9 -231.4 363.4 -229.9 364.6 C -228.6 365.6 -227.9 367 -227.9 369 C -227.9 371.6 -229.8 373.5 -231.6 374.1 L -231.6 374.2 C -230.1 374.8 -229.3 376.2 -228.8 378.1 C -228.1 380.5 -227.5 383.2 -227.1 384 L -231.9 384 C -232.2 383.4 -232.7 381.7 -233.3 379.1 C -233.9 376.5 -234.8 375.8 -236.7 375.8 L -238.1 375.8 L -238.1 384 L -243 384 L -243 363.4 L -243 363.4 Z M -238.3 372.4 L -236.4 372.4 C -234 372.4 -232.7 371.2 -232.7 369.4 C -232.7 367.5 -234 366.5 -236.2 366.5 C -237.3 366.5 -238 366.6 -238.3 366.7 L -238.3 372.4 Z M -215.6 384.3 C -221.8 384.3 -225.4 379.6 -225.4 373.7 C -225.4 367.4 -221.4 362.8 -215.2 362.8 C -208.8 362.8 -205.3 367.6 -205.3 373.4 C -205.3 380.2 -209.4 384.3 -215.6 384.3 L -215.6 384.3 Z M -215.4 380.6 C -212.2 380.6 -210.4 377.6 -210.4 373.5 C -210.4 369.8 -212.2 366.5 -215.4 366.5 C -218.7 366.5 -220.5 369.7 -220.5 373.6 C -220.4 377.5 -218.5 380.6 -215.4 380.6 Z M -201.9 363.1 L -189.2 363.1 L -189.2 367 L -197.2 367 L -197.2 371.8 L -189.7 371.8 L -189.7 375.6 L -197.2 375.6 L -197.2 384 L -201.9 384 L -201.9 363.1 Z M -172.9 375.2 L -180.6 375.2 L -180.6 380.2 L -172 380.2 L -172 384.1 L -185.3 384.1 L -185.3 363.2 L -172.4 363.2 L -172.4 367.1 L -180.5 367.1 L -180.5 371.4 L -172.8 371.4 L -172.9 375.2 Z M -168.3 379.2 C -167.1 379.9 -165.1 380.5 -163.1 380.5 C -160.9 380.5 -159.8 379.6 -159.8 378.2 C -159.8 376.9 -160.8 376.2 -163.3 375.3 C -166.8 374.1 -169.1 372.1 -169.1 369.1 C -169.1 365.5 -166.1 362.8 -161.2 362.8 C -158.8 362.8 -157.1 363.3 -155.9 363.9 L -157 367.7 C -157.8 367.3 -159.3 366.7 -161.3 366.7 C -163.3 366.7 -164.3 367.7 -164.3 368.7 C -164.3 370 -163.2 370.6 -160.4 371.7 C -156.7 373.1 -155 375 -155 378 C -155 381.5 -157.7 384.5 -163.4 384.5 C -165.8 384.5 -168.1 383.8 -169.3 383.2 L -168.3 379.2 L -168.3 379.2 Z M -151.3 379.2 C -150.1 379.9 -148.1 380.5 -146.1 380.5 C -143.9 380.5 -142.8 379.6 -142.8 378.2 C -142.8 376.9 -143.8 376.2 -146.3 375.3 C -149.8 374.1 -152.1 372.1 -152.1 369.1 C -152.1 365.5 -149.1 362.8 -144.2 362.8 C -141.8 362.8 -140.1 363.3 -138.9 363.9 L -140 367.7 C -140.8 367.3 -142.3 366.7 -144.3 366.7 C -146.3 366.7 -147.3 367.7 -147.3 368.7 C -147.3 370 -146.2 370.6 -143.4 371.7 C -139.7 373.1 -138 375 -138 378 C -138 381.5 -140.7 384.5 -146.4 384.5 C -148.8 384.5 -151.1 383.8 -152.3 383.2 L -151.3 379.2 L -151.3 379.2 Z M -129.7 363.1 L -129.7 384 L -134.4 384 L -134.4 363.1 L -129.7 363.1 Z M -116.4 384.3 C -122.6 384.3 -126.2 379.6 -126.2 373.7 C -126.2 367.4 -122.2 362.8 -116 362.8 C -109.6 362.8 -106.1 367.6 -106.1 373.4 C -106.2 380.2 -110.3 384.3 -116.4 384.3 L -116.4 384.3 Z M -116.2 380.6 C -113 380.6 -111.2 377.6 -111.2 373.5 C -111.2 369.8 -113 366.5 -116.2 366.5 C -119.5 366.5 -121.3 369.7 -121.3 373.6 C -121.3 377.5 -119.4 380.6 -116.2 380.6 Z M -102.7 384 L -102.7 363.1 L -97.2 363.1 L -92.9 370.7 C -91.7 372.9 -90.5 375.5 -89.5 377.9 L -89.4 377.9 C -89.7 375.1 -89.8 372.3 -89.8 369.2 L -89.8 363.1 L -85.5 363.1 L -85.5 384 L -90.5 384 L -95 375.9 C -96.2 373.6 -97.6 371 -98.6 368.5 L -98.7 368.5 C -98.5 371.3 -98.5 374.2 -98.5 377.6 L -98.5 383.9 L -102.7 384 L -102.7 384 Z M -76.2 378.6 L -77.7 384 L -82.6 384 L -76.2 363.1 L -70 363.1 L -63.5 384 L -68.6 384 L -70.2 378.6 L -76.2 378.6 L -76.2 378.6 Z M -70.9 375.1 L -72.2 370.7 L -73.2 366.7 L -73.3 366.7 C -73.6 367.9 -73.9 369.5 -74.2 370.7 L -75.5 375.1 L -70.9 375.1 Z M -60.4 363.1 L -55.7 363.1 L -55.7 380 L -47.4 380 L -47.4 384 L -60.4 384 L -60.4 363.1 Z M -309.1 396.1 C -307.4 395.8 -305.1 395.6 -302.8 395.6 C -298.8 395.6 -296.2 396.3 -294.2 397.8 C -292 399.4 -290.7 402 -290.7 405.7 C -290.7 409.7 -292.2 412.5 -294.1 414.2 C -296.3 416 -299.7 416.9 -303.8 416.9 C -306.2 416.9 -308 416.7 -309.2 416.6 L -309.2 396.1 L -309.1 396.1 L -309.1 396.1 Z M -304.4 413.1 C -304 413.2 -303.3 413.2 -302.8 413.2 C -298.5 413.2 -295.7 410.9 -295.7 405.9 C -295.7 401.4 -298.2 399.3 -302.3 399.3 C -303.3 399.3 -304 399.4 -304.4 399.5 L -304.4 413.1 Z M -282.4 411.3 L -283.9 416.7 L -288.8 416.7 L -282.4 395.8 L -276.2 395.8 L -269.7 416.7 L -274.8 416.7 L -276.4 411.3 L -282.4 411.3 L -282.4 411.3 Z M -277.1 407.8 L -278.4 403.4 L -279.4 399.4 L -279.5 399.4 C -279.8 400.6 -280.1 402.2 -280.4 403.4 L -281.7 407.8 L -277.1 407.8 Z M -266.6 396.1 C -265.1 395.8 -262.9 395.6 -260.3 395.6 C -257.2 395.6 -255 396.1 -253.5 397.3 C -252.2 398.3 -251.5 399.7 -251.5 401.7 C -251.5 404.3 -253.4 406.2 -255.2 406.8 L -255.2 406.9 C -253.7 407.5 -252.9 408.9 -252.4 410.8 C -251.7 413.2 -251.1 415.9 -250.7 416.7 L -255.5 416.7 C -255.8 416.1 -256.3 414.4 -256.9 411.8 C -257.5 409.2 -258.4 408.5 -260.3 408.5 L -261.7 408.5 L -261.7 416.7 L -266.4 416.7 L -266.4 396.1 L -266.6 396.1 L -266.6 396.1 Z M -261.9 405.1 L -260 405.1 C -257.6 405.1 -256.3 403.9 -256.3 402.1 C -256.3 400.2 -257.6 399.2 -259.8 399.2 C -260.9 399.2 -261.6 399.3 -261.9 399.4 L -261.9 405.1 L -261.9 405.1 Z M -244.1 399.8 L -249.7 399.8 L -249.7 395.8 L -233.7 395.8 L -233.7 399.8 L -239.4 399.8 L -239.4 416.7 L -244.1 416.7 L -244.1 399.8 L -244.1 399.8 Z M -231 411.9 C -229.8 412.6 -227.8 413.2 -225.8 413.2 C -223.6 413.2 -222.5 412.3 -222.5 410.9 C -222.5 409.6 -223.5 408.9 -226 408 C -229.5 406.8 -231.8 404.8 -231.8 401.8 C -231.8 398.2 -228.8 395.5 -223.9 395.5 C -221.5 395.5 -219.8 396 -218.6 396.6 L -219.7 400.4 C -220.5 400 -222 399.4 -224 399.4 C -226 399.4 -227 400.4 -227 401.4 C -227 402.7 -225.9 403.3 -223.1 404.4 C -219.4 405.8 -217.7 407.7 -217.7 410.7 C -217.7 414.2 -220.4 417.2 -226.1 417.2 C -228.5 417.2 -230.8 416.5 -232 415.9 L -231 411.9 L -231 411.9 Z M -192.2 416.1 C -193 416.5 -195 417 -197.5 417 C -204.7 417 -208.4 412.5 -208.4 406.5 C -208.4 399.4 -203.3 395.4 -197 395.4 C -194.6 395.4 -192.7 395.9 -191.9 396.3 L -192.9 400 C -193.8 399.6 -195.2 399.2 -196.9 399.2 C -200.6 399.2 -203.5 401.5 -203.5 406.1 C -203.5 410.3 -201 412.9 -196.8 412.9 C -195.3 412.9 -193.8 412.6 -192.8 412.2 L -192.2 416.1 L -192.2 416.1 Z M -180.9 417 C -187.1 417 -190.7 412.3 -190.7 406.4 C -190.7 400.1 -186.7 395.5 -180.5 395.5 C -174.1 395.5 -170.6 400.3 -170.6 406.1 C -170.6 412.9 -174.8 417 -180.9 417 L -180.9 417 Z M -180.7 413.3 C -177.5 413.3 -175.7 410.3 -175.7 406.2 C -175.7 402.5 -177.5 399.2 -180.7 399.2 C -184 399.2 -185.8 402.4 -185.8 406.3 C -185.7 410.2 -183.9 413.3 -180.7 413.3 Z M -167.2 396.1 C -165.7 395.8 -163.5 395.6 -160.9 395.6 C -157.8 395.6 -155.6 396.1 -154.1 397.3 C -152.8 398.3 -152.1 399.7 -152.1 401.7 C -152.1 404.3 -154 406.2 -155.8 406.8 L -155.8 406.9 C -154.3 407.5 -153.5 408.9 -153 410.8 C -152.3 413.2 -151.7 415.9 -151.3 416.7 L -156.1 416.7 C -156.4 416.1 -156.9 414.4 -157.5 411.8 C -158.1 409.2 -159 408.5 -160.9 408.5 L -162.3 408.5 L -162.3 416.7 L -167 416.7 L -167 396.1 L -167.2 396.1 L -167.2 396.1 Z M -162.6 405.1 L -160.7 405.1 C -158.3 405.1 -157 403.9 -157 402.1 C -157 400.2 -158.3 399.2 -160.5 399.2 C -161.6 399.2 -162.3 399.3 -162.6 399.4 L -162.6 405.1 Z M -148.6 396.1 C -147.1 395.9 -145.1 395.7 -142.2 395.7 C -139.3 395.7 -137.2 396.3 -135.8 397.4 C -134.5 398.4 -133.6 400.2 -133.6 402.2 C -133.6 404.3 -134.3 406 -135.5 407.2 C -137.1 408.7 -139.5 409.4 -142.3 409.4 C -142.9 409.4 -143.5 409.4 -143.9 409.3 L -143.9 416.8 L -148.6 416.8 L -148.6 396.1 Z M -143.9 405.6 C -143.5 405.7 -143 405.7 -142.3 405.7 C -139.8 405.7 -138.2 404.4 -138.2 402.3 C -138.2 400.4 -139.5 399.2 -141.9 399.2 C -142.9 399.2 -143.5 399.3 -143.9 399.4 L -143.9 405.6 Z M -121.4 417 C -127.6 417 -131.2 412.3 -131.2 406.4 C -131.2 400.1 -127.2 395.5 -121 395.5 C -114.6 395.5 -111.1 400.3 -111.1 406.1 C -111.2 412.9 -115.3 417 -121.4 417 Z M -121.2 413.3 C -118 413.3 -116.2 410.3 -116.2 406.2 C -116.2 402.5 -118 399.2 -121.2 399.2 C -124.5 399.2 -126.3 402.4 -126.3 406.3 C -126.3 410.2 -124.4 413.3 -121.2 413.3 Z M -107.7 396.1 C -106.2 395.8 -104 395.6 -101.4 395.6 C -98.3 395.6 -96.1 396.1 -94.6 397.3 C -93.3 398.3 -92.6 399.7 -92.6 401.7 C -92.6 404.3 -94.5 406.2 -96.3 406.8 L -96.3 406.9 C -94.8 407.5 -94 408.9 -93.5 410.8 C -92.8 413.2 -92.2 415.9 -91.8 416.7 L -96.6 416.7 C -96.9 416.1 -97.4 414.4 -98 411.8 C -98.6 409.2 -99.5 408.5 -101.4 408.5 L -102.8 408.5 L -102.8 416.7 L -107.5 416.7 L -107.5 396.1 L -107.7 396.1 L -107.7 396.1 Z M -103.1 405.1 L -101.2 405.1 C -98.8 405.1 -97.5 403.9 -97.5 402.1 C -97.5 400.2 -98.8 399.2 -101 399.2 C -102.1 399.2 -102.8 399.3 -103.1 399.4 L -103.1 405.1 L -103.1 405.1 Z M -84 411.3 L -85.5 416.7 L -90.4 416.7 L -84 395.8 L -77.8 395.8 L -71.3 416.7 L -76.4 416.7 L -78 411.3 L -84 411.3 L -84 411.3 Z M -78.7 407.8 L -80 403.4 L -81 399.4 L -81.1 399.4 C -81.4 400.6 -81.7 402.2 -82 403.4 L -83.3 407.8 L -78.7 407.8 Z M -66.9 399.8 L -72.5 399.8 L -72.5 395.8 L -56.5 395.8 L -56.5 399.8 L -62.2 399.8 L -62.2 416.7 L -66.9 416.7 L -66.9 399.8 Z M -48.9 395.8 L -48.9 416.7 L -53.6 416.7 L -53.6 395.8 L -48.9 395.8 Z M -35.7 417 C -41.9 417 -45.5 412.3 -45.5 406.4 C -45.5 400.1 -41.5 395.5 -35.3 395.5 C -28.9 395.5 -25.4 400.3 -25.4 406.1 C -25.4 412.9 -29.6 417 -35.7 417 Z M -35.5 413.3 C -32.3 413.3 -30.5 410.3 -30.5 406.2 C -30.5 402.5 -32.3 399.2 -35.5 399.2 C -38.8 399.2 -40.6 402.4 -40.6 406.3 C -40.6 410.2 -38.7 413.3 -35.5 413.3 Z M -22 416.7 L -22 395.8 L -16.5 395.8 L -12.2 403.4 C -11 405.6 -9.8 408.2 -8.8 410.6 L -8.7 410.6 C -9 407.8 -9.1 405 -9.1 401.9 L -9.1 395.8 L -4.8 395.8 L -4.8 416.7 L -9.8 416.7 L -14.3 408.6 C -15.5 406.3 -16.9 403.7 -17.9 401.2 L -18 401.2 C -17.8 404 -17.8 406.9 -17.8 410.3 L -17.8 416.6 L -22 416.6 L -22 416.7 L -22 416.7 Z" style="fill: rgb(255, 255, 255);"/>
</svg>