<svg xmlns="http://www.w3.org/2000/svg" width="234" height="28" fill="none"><g fill-rule="evenodd" clip-path="url(#a)" clip-rule="evenodd"><path fill="#1F7DC1" d="M31.613.888c1.013-.2 2.04-.316 3.072-.347h20.123l-4.604 6.026H37.11c-.405-1.212-1.697-3.847-5.497-5.679ZM35.25 27.5c-.7 0-7.532-.136-11.93-4.426v-.068c-4.296-4.188-5.32-10.133-2.626-15.186h4.268c.11 0 2.708.43 2.625 2.724a7.307 7.307 0 0 0-.618 5.666c1.01 3.241 4.618 4.903 6.749 5.209 1.818.262 9.572.077 12.076.017.429-.01.704-.017.768-.017h.646v-5.36h-14l4.173-4.902h17.305V27.5H35.249Z"/><path fill="#0C2444" d="M5.54.5H24.74c.488 0 11.683.552 11.773 9.956l-5.739 6.81h2.653a11.707 11.707 0 0 1-2.7 1.62 5.51 5.51 0 0 1-2.278-2.653 5.448 5.448 0 0 1-.21-3.476c.415-.565.67-1.23.735-1.927.144-1.675-.784-3.677-3.849-4.283H.687L5.54.5ZM0 14.323h17.965v.007a14.667 14.667 0 0 0 1.65 5.918H7.56v7.232H0V14.323ZM162.546 20.956a10.75 10.75 0 0 1-5.392 1.237c-2.38 0-4.257-.653-5.633-1.958-1.376-1.306-2.062-3.105-2.059-5.397a7.493 7.493 0 0 1 .528-3.054 7.542 7.542 0 0 1 1.722-2.587c1.5-1.447 3.496-2.17 5.989-2.17a12.318 12.318 0 0 1 4.155.646v3.102a8.298 8.298 0 0 0-4.193-.981 4.51 4.51 0 0 0-3.383 1.323 4.878 4.878 0 0 0-1.018 1.65 4.833 4.833 0 0 0-.291 1.914 4.93 4.93 0 0 0 1.172 3.504 4.153 4.153 0 0 0 3.169 1.236 4.486 4.486 0 0 0 1.894-.32v-2.885h-2.967v-2.637h6.307v7.377Zm-78.78.982h8.82v-2.68H87.1V7.266h-3.333v14.672Zm-8.6 0v-5.055l1.594.027a6.406 6.406 0 0 0 4.291-1.367 4.5 4.5 0 0 0 1.215-1.605 4.46 4.46 0 0 0 .39-1.97c0-3.116-1.865-4.675-5.595-4.675h-5.228v14.645h3.334Zm0-7.534V9.83h1.315c1.773 0 2.666.711 2.666 2.257 0 1.546-.893 2.316-2.666 2.316h-1.314Zm33.459 7.534h-3.613l-1.056-3.255h-5.267l-1.04 3.255h-3.64L99.4 7.293h3.969l5.255 14.645Zm-5.474-5.804-1.593-4.93a6.64 6.64 0 0 1-.247-1.318h-.082a5.494 5.494 0 0 1-.257 1.274l-1.615 4.974h3.794Zm11.912-6.178h4.226v-2.69h-11.775v2.69h4.204v11.982h3.345V9.956Zm12.163-2.69V9.82h-1.237v9.557h1.237v2.56h-5.813v-2.56h1.242V9.82h-1.242V7.266h5.813Zm12.087 14.672h3.361l-.016-14.667h-3.148v8.136c-.016.672.012 1.344.082 2.013h-.038a22.43 22.43 0 0 0-.744-1.194l-5.88-8.933h-3.574v14.645h3.147v-8.06c0-1.063-.027-1.855-.082-2.37h.044c.225.416.473.82.745 1.21l6.103 9.22Zm35.32 0h3.635l-5.267-14.645h-3.952l-5.392 14.645h3.613l1.045-3.255h5.267l1.051 3.255Zm-3.383-10.734 1.543 4.93-3.766-.005 1.61-4.974c.136-.413.222-.841.257-1.275h.082c.043.45.134.894.274 1.324Zm25 10.734h-3.284v-8.803c0-.948.04-1.995.12-3.14h-.082a15.139 15.139 0 0 1-.465 1.946l-3.471 9.975h-2.737l-3.525-9.866a19.617 19.617 0 0 1-.466-2.045h-.093c.095 1.446.141 2.712.137 3.797v8.136h-3.005V7.293h4.883l3.027 8.678c.245.683.429 1.385.547 2.1h.061c.159-.717.356-1.425.591-2.121l3.027-8.679h4.757l-.022 14.667Zm7.943-12.117V7.266h-5.813V9.82h1.237v9.557h-1.237v2.56h5.813v-2.56h-1.237V9.82h1.237Zm15.448 12.117h-3.366l-6.104-9.22a16.02 16.02 0 0 1-.744-1.216h-.039c.055.515.082 1.307.082 2.37v8.066h-3.147V7.293h3.591l5.879 8.933c.268.402.515.798.739 1.194h.044a15.544 15.544 0 0 1-.082-2.013V7.271h3.147v14.667Zm8.803.255a10.745 10.745 0 0 0 5.392-1.237l.011-7.377h-6.301v2.637h2.967v2.869a4.503 4.503 0 0 1-1.899.336 4.178 4.178 0 0 1-3.17-1.236 4.927 4.927 0 0 1-1.182-3.494 4.85 4.85 0 0 1 1.308-3.563 4.511 4.511 0 0 1 3.383-1.334 8.298 8.298 0 0 1 4.193.981V7.673a12.314 12.314 0 0 0-4.155-.646c-2.492 0-4.489.723-5.988 2.17a7.545 7.545 0 0 0-1.723 2.587 7.475 7.475 0 0 0-.527 3.054c0 2.292.686 4.091 2.058 5.397 1.372 1.305 3.25 1.958 5.633 1.958Z"/></g><defs><clipPath id="a"><path fill="#fff" d="M0 .5h234v27H0z"/></clipPath></defs></svg>