<svg width="150" height="23" viewBox="0 0 150 23" fill="none" xmlns="http://www.w3.org/2000/svg">
<g clip-path="url(#clip0_5501_793)">
<path d="M3.27279 16.2137C4.34355 17.9672 6.01698 18.8673 8.33403 18.8673C10.3878 18.8673 11.3415 17.9438 11.3415 16.8742C11.3281 16.5219 11.2185 16.1799 11.0246 15.8853C10.8307 15.5907 10.5599 15.3546 10.2415 15.2025C9.69449 14.8706 9.10364 14.6168 8.48617 14.4485C7.99467 14.2498 6.84198 13.864 6.26272 13.6419C3.10895 12.4729 1.37117 10.8363 1.37117 7.79694C1.33967 7.00387 1.49974 6.21487 1.83786 5.49662C2.17598 4.77838 2.6822 4.15199 3.31375 3.67039C4.67221 2.61005 6.35924 2.05796 8.08243 2.10979C11.008 2.10979 13.2314 3.20865 14.7937 5.40052L11.8096 7.65667C11.3758 7.12807 10.8219 6.71067 10.1939 6.43921C9.56596 6.16775 8.88216 6.05011 8.19946 6.09607C6.72498 6.09607 5.77122 6.78578 5.77122 7.73851C5.7411 8.03014 5.79913 8.3241 5.93784 8.58247C6.07655 8.84084 6.28958 9.05177 6.54944 9.18805C6.8654 9.35756 7.18721 9.50369 7.44466 9.62059L8.8899 10.1116C9.55693 10.3395 10.1362 10.5441 10.6452 10.7428C14.3198 12.1339 15.7942 13.8348 15.7942 16.7222C15.7942 20.4513 13.249 22.877 8.30478 22.877C4.20898 22.877 1.38872 21.0592 0.03125 18.429L3.27279 16.2137Z" fill="#3B4566"/>
<path d="M31.4597 10.258L28.7448 12.9466C28.3264 12.4709 27.8104 12.0906 27.232 11.8314C26.6535 11.5722 26.026 11.4402 25.3921 11.4445C24.3834 11.4445 23.416 11.8448 22.7028 12.5573C21.9895 13.2698 21.5888 14.2361 21.5888 15.2437C21.5888 16.2513 21.9895 17.2177 22.7028 17.9302C23.416 18.6427 24.3834 19.043 25.3921 19.043C26.026 19.0472 26.6535 18.9153 27.232 18.6561C27.8104 18.3969 28.3264 18.0166 28.7448 17.5408L31.4597 20.2237C30.7098 21.0935 29.7775 21.7879 28.7289 22.2576C27.6803 22.7273 26.5411 22.9608 25.3921 22.9416C23.2666 22.9963 21.2062 22.2058 19.6638 20.7439C18.9319 20.0296 18.3503 19.1764 17.9532 18.2343C17.5561 17.2923 17.3516 16.2805 17.3516 15.2583C17.3516 14.2362 17.5561 13.2244 17.9532 12.2823C18.3503 11.3403 18.9319 10.4871 19.6638 9.77283C20.4252 9.04367 21.323 8.47167 22.306 8.08954C23.2889 7.70742 24.3376 7.52267 25.3921 7.54589C26.5405 7.52675 27.6792 7.75973 28.7276 8.22835C29.7761 8.69698 30.7087 9.38983 31.4597 10.258Z" fill="#3B4566"/>
<path d="M33.4062 22.5671V2.43115H37.7127V9.77245C38.2978 8.49824 39.8542 7.69164 41.8085 7.69164C45.249 7.69164 47.215 9.94196 47.215 13.7237V22.5671H42.9085V14.2497C42.9085 12.543 42.0133 11.5026 40.4218 11.5026C38.8303 11.5026 37.7303 12.6716 37.7303 14.39V22.573L33.4062 22.5671Z" fill="#3B4566"/>
<path d="M62.8882 9.82571C63.6531 10.5118 64.2608 11.3547 64.6698 12.2969C65.0788 13.239 65.2794 14.2582 65.2579 15.2849C65.2775 16.3156 65.0761 17.3386 64.6674 18.2852C64.2587 19.2318 63.6521 20.0802 62.8882 20.7734C61.3208 22.2064 59.273 23.0012 57.1482 23.0012C55.0234 23.0012 52.9757 22.2064 51.4083 20.7734C50.6539 20.0743 50.0555 19.2241 49.6522 18.2784C49.249 17.3327 49.0498 16.3127 49.0678 15.2849C49.0476 14.2611 49.2459 13.2448 49.6495 12.3035C50.053 11.3622 50.6526 10.5176 51.4083 9.82571C52.9687 8.37879 55.0191 7.57471 57.1482 7.57471C59.2773 7.57471 61.3277 8.37879 62.8882 9.82571ZM54.4743 18.0087C55.1919 18.7123 56.1573 19.1065 57.1629 19.1065C58.1684 19.1065 59.1338 18.7123 59.8515 18.0087C60.207 17.6518 60.4874 17.2275 60.6763 16.7607C60.8652 16.294 60.9588 15.7942 60.9515 15.2908C60.9622 14.7921 60.87 14.2966 60.6808 13.8351C60.4915 13.3735 60.2093 12.9558 59.8515 12.6079C59.5011 12.2504 59.0829 11.9663 58.6212 11.7724C58.1595 11.5785 57.6637 11.4786 57.1629 11.4786C56.662 11.4786 56.1662 11.5785 55.7046 11.7724C55.2429 11.9663 54.8246 12.2504 54.4743 12.6079C54.1165 12.9558 53.8342 13.3735 53.645 13.8351C53.4557 14.2966 53.3636 14.7921 53.3743 15.2908C53.3647 15.7936 53.4573 16.2932 53.6464 16.7593C53.8354 17.2254 54.1171 17.6484 54.4743 18.0028V18.0087Z" fill="#3B4566"/>
<path d="M80.7046 9.82571C81.4686 10.5125 82.0757 11.3555 82.4846 12.2975C82.8934 13.2395 83.0946 14.2584 83.0743 15.2849C83.0923 16.3154 82.8903 17.3379 82.4817 18.2843C82.073 19.2307 81.4672 20.0792 80.7046 20.7734C79.1372 22.2064 77.0894 23.0012 74.9646 23.0012C72.8398 23.0012 70.792 22.2064 69.2246 20.7734C68.4702 20.0743 67.8719 19.2241 67.4686 18.2784C67.0653 17.3327 66.8662 16.3127 66.8842 15.2849C66.8644 14.2612 67.0628 13.245 67.4663 12.3037C67.8699 11.3625 68.4692 10.5178 69.2246 9.82571C70.7851 8.37879 72.8355 7.57471 74.9646 7.57471C77.0937 7.57471 79.1441 8.37879 80.7046 9.82571ZM72.2906 18.0087C73.0083 18.7123 73.9737 19.1065 74.9792 19.1065C75.9848 19.1065 76.9502 18.7123 77.6678 18.0087C78.0222 17.651 78.302 17.2266 78.4908 16.76C78.6797 16.2934 78.7738 15.794 78.7678 15.2908C78.7771 14.7923 78.6843 14.2972 78.4952 13.8359C78.306 13.3745 78.0245 12.9567 77.6678 12.6079C77.3175 12.2504 76.8992 11.9663 76.4375 11.7724C75.9758 11.5785 75.4801 11.4786 74.9792 11.4786C74.4784 11.4786 73.9826 11.5785 73.5209 11.7724C73.0592 11.9663 72.641 12.2504 72.2906 12.6079C71.9328 12.9558 71.6506 13.3735 71.4613 13.8351C71.2721 14.2966 71.1799 14.7921 71.1906 15.2908C71.1841 15.7953 71.2804 16.2958 71.4735 16.762C71.6666 17.2283 71.9526 17.6504 72.314 18.0028L72.2906 18.0087Z" fill="#3B4566"/>
<path d="M85.082 22.5671V2.43115H89.3885V22.5671H85.082Z" fill="#3B4566"/>
<path d="M92.3672 22.5671V2.43115H96.305L105.959 14.9394V2.43115H110.272V22.5671H106.626L96.6502 9.70816V22.5671H92.3672Z" fill="#3B4566"/>
<path d="M126.205 9.82571C126.964 10.5145 127.566 11.3585 127.97 12.3006C128.374 13.2426 128.57 14.2604 128.545 15.2849C128.568 16.3134 128.372 17.335 127.968 18.2815C127.564 19.228 126.963 20.0775 126.205 20.7734C124.637 22.2064 122.589 23.0012 120.465 23.0012C118.34 23.0012 116.292 22.2064 114.725 20.7734C113.97 20.0743 113.372 19.2241 112.969 18.2784C112.565 17.3327 112.366 16.3127 112.384 15.2849C112.364 14.2611 112.562 13.2448 112.966 12.3035C113.369 11.3622 113.969 10.5176 114.725 9.82571C116.285 8.37879 118.336 7.57471 120.465 7.57471C122.594 7.57471 124.644 8.37879 126.205 9.82571ZM117.791 18.0087C118.508 18.7123 119.474 19.1065 120.479 19.1065C121.485 19.1065 122.45 18.7123 123.168 18.0087C123.523 17.6518 123.804 17.2275 123.993 16.7607C124.182 16.294 124.275 15.7942 124.268 15.2908C124.279 14.7921 124.186 14.2966 123.997 13.8351C123.808 13.3735 123.526 12.9558 123.168 12.6079C122.818 12.2504 122.399 11.9663 121.938 11.7724C121.476 11.5785 120.98 11.4786 120.479 11.4786C119.978 11.4786 119.483 11.5785 119.021 11.7724C118.559 11.9663 118.141 12.2504 117.791 12.6079C117.433 12.9558 117.151 13.3735 116.961 13.8351C116.772 14.2966 116.68 14.7921 116.691 15.2908C116.681 15.7936 116.774 16.2932 116.963 16.7593C117.152 17.2254 117.433 17.6484 117.791 18.0028V18.0087Z" fill="#3B4566"/>
<path d="M133.113 22.5677L128.52 8.00781H132.51L135.079 16.1265L137.565 8.00781H140.924L143.44 16.1265L146.014 8.00781H150.005L145.377 22.5677H141.819L139.245 14.2503L136.676 22.5677H133.113Z" fill="#3B4566"/>
<path d="M114.828 3.24982C116.661 2.43308 118.65 2.0227 120.657 2.04691C122.664 2.07113 124.642 2.52938 126.454 3.39011" stroke="#EAAD53" stroke-width="4" stroke-miterlimit="10" stroke-linecap="round"/>
</g>
<defs>
<clipPath id="clip0_5501_793">
<rect width="150" height="23" fill="white"/>
</clipPath>
</defs>
</svg>
