<?xml version="1.0" encoding="utf-8"?>
<!-- Generator: Adobe Illustrator 23.0.1, SVG Export Plug-In . SVG Version: 6.00 Build 0)  -->
<svg version="1.1" id="Layer_1" xmlns="http://www.w3.org/2000/svg" xmlns:xlink="http://www.w3.org/1999/xlink" x="0px" y="0px"
	 viewBox="0 0 343.4 68.6" style="enable-background:new 0 0 343.4 68.6;" xml:space="preserve">
<style type="text/css">
	.st0{fill:#072B61;}
	.st1{fill:#979596;}
	.st2{fill:#515051;}
</style>
<g>
	<g>
		<polygon class="st0" points="284.5,9.2 271.7,9.2 281,23.6 		"/>
		<polygon class="st0" points="262.9,0 239.8,0 267,6.4 		"/>
		<polygon class="st0" points="239.7,2.5 254.6,27.8 254.6,27.8 266.7,8.8 		"/>
		<polygon class="st0" points="257.6,27.6 279.8,26.2 269.1,9.6 		"/>
		<polygon class="st0" points="267.7,46.8 278.6,28.7 256.1,30.2 		"/>
		<polygon class="st1" points="286.5,11.4 283.1,25.5 286.5,28.6 		"/>
		<polygon class="st1" points="250.5,38.8 264.8,46.8 254.6,32.3 		"/>
		<polygon class="st1" points="283.5,6.8 265.7,0 270.1,6.8 		"/>
		<polygon class="st1" points="281.4,28.6 270.5,46.8 286.5,29.4 		"/>
		<path class="st0" d="M25.6,15.5l4.4-1.9c-0.6-1.4-1.5-2.7-2.5-3.7c-1.1-1.1-2.3-2-3.6-2.7c-1.3-0.7-2.7-1.2-4.2-1.6
			c-1.5-0.3-3-0.5-4.5-0.5c-1.8,0-3.5,0.2-5.1,0.7C8.3,6.3,6.8,7,5.5,7.9C4.2,8.8,3.1,10,2.3,11.3C1.5,12.7,1,14.2,0.9,16
			c0,2,0.4,3.7,1.2,5c0.8,1.3,1.8,2.4,3.1,3.2c1.3,0.8,2.7,1.5,4.3,1.9s3.2,0.9,4.9,1.2c1.4,0.3,2.8,0.6,4.1,0.9
			c1.3,0.3,2.5,0.8,3.5,1.3c1,0.6,1.8,1.3,2.3,2.2c0.5,0.9,0.7,2.1,0.6,3.6c-0.1,1.1-0.4,2.1-1,2.9c-0.6,0.8-1.3,1.5-2.2,2.1
			c-0.9,0.6-1.9,1-3.1,1.2S16.4,42,15.2,42c-1.1,0-2.2-0.1-3.3-0.4c-1.1-0.2-2.1-0.6-3.1-1.1c-1-0.5-1.8-1.1-2.6-1.9
			c-0.8-0.7-1.4-1.6-1.8-2.6l-4.4,2c0.6,1.5,1.5,2.7,2.5,3.8c1.1,1.1,2.3,2,3.6,2.7c1.3,0.7,2.8,1.3,4.3,1.6
			c1.5,0.4,3.1,0.5,4.6,0.5c1.8,0,3.6-0.2,5.3-0.7c1.7-0.5,3.3-1.1,4.6-2.1c1.4-0.9,2.5-2.1,3.4-3.5c0.9-1.4,1.3-3,1.5-4.9
			c0.1-2.5-0.2-4.5-1-6c-0.8-1.5-1.9-2.7-3.3-3.6c-1.4-0.9-2.9-1.6-4.7-2c-1.8-0.4-3.5-0.8-5.3-1.2c-1.3-0.3-2.6-0.5-3.8-0.8
			c-1.2-0.3-2.3-0.6-3.2-1.1c-0.9-0.5-1.7-1.1-2.2-1.8c-0.5-0.7-0.7-1.7-0.7-2.9c0.1-1.1,0.4-2,0.9-2.8c0.6-0.8,1.3-1.5,2.1-2
			c0.9-0.5,1.9-0.9,3-1.2c1.1-0.3,2.3-0.4,3.4-0.4c1.1,0,2.1,0.1,3.2,0.4c1.1,0.2,2.1,0.6,3,1.1c0.9,0.5,1.8,1.1,2.5,1.8
			C24.6,13.7,25.2,14.6,25.6,15.5 M42.2,27.5v-4.7c0-1,0.2-2,0.6-2.7c0.4-0.8,0.9-1.4,1.7-2c0.7-0.5,1.5-0.9,2.5-1.2
			c1-0.3,2-0.4,3.1-0.4c1,0,1.9,0.1,2.9,0.4c1,0.3,1.8,0.7,2.5,1.2c0.7,0.5,1.3,1.2,1.8,1.9c0.5,0.8,0.7,1.6,0.7,2.6v4.8
			C57.9,27.5,42.2,27.5,42.2,27.5z M42.2,31.9h20.7V23c0-1.9-0.4-3.5-1.1-4.9c-0.7-1.4-1.7-2.6-2.9-3.5c-1.2-0.9-2.6-1.6-4.1-2.1
			c-1.5-0.5-3.1-0.7-4.7-0.7c-1.6,0-3.3,0.2-4.8,0.7c-1.6,0.5-3,1.1-4.2,2.1c-1.2,0.9-2.2,2.1-3,3.5c-0.8,1.4-1.1,3-1.1,4.9v12.6
			c0,1.9,0.4,3.5,1.1,4.9c0.8,1.4,1.7,2.6,3,3.5c1.2,0.9,2.6,1.6,4.2,2.1c1.6,0.5,3.2,0.7,4.8,0.7c1.2,0,2.4-0.2,3.6-0.5
			c1.2-0.3,2.4-0.8,3.4-1.4c1.1-0.6,2-1.4,2.9-2.3c0.9-0.9,1.6-2,2.2-3.3l-4.6-2c-0.7,1.6-1.8,2.7-3.2,3.4C53,41.6,51.5,42,50,42
			c-1,0-2-0.1-2.9-0.4c-0.9-0.2-1.8-0.6-2.5-1.1c-0.7-0.5-1.3-1.1-1.8-1.9c-0.4-0.7-0.7-1.6-0.7-2.7V31.9z M83.4,27.8l15.2-15.4
			h-6.8L76.2,28.1V0H71v46.1h5.2V35l3.5-3.5l12,14.6h6.6L83.4,27.8z M122.2,41.7c-1.4,0.3-2.8,0.5-4.3,0.6s-2.9,0.1-4.3,0.1
			c-2,0-3.7-0.5-5-1.5c-1.3-0.9-2-2.5-2-4.7c0-1.2,0.2-2.2,0.7-3.1s1.1-1.5,1.8-2c0.7-0.5,1.6-0.9,2.6-1.1c1-0.2,2-0.4,3-0.4
			c1.4,0,2.7,0.1,4,0.4c1.3,0.3,2.5,0.6,3.5,0.9L122.2,41.7L122.2,41.7z M120.4,46.3c2.3-0.4,4.7-1,7-1.8V22.7
			c0-1.8-0.4-3.4-1.1-4.8c-0.7-1.4-1.7-2.5-2.9-3.4c-1.2-0.9-2.6-1.6-4.1-2c-1.5-0.5-3.1-0.7-4.7-0.7c-2.1,0-4.3,0.4-6.4,1.3
			c-2.1,0.9-4,2.2-5.6,3.9l3.3,3.2c1-1.3,2.3-2.2,3.8-2.8c1.5-0.6,3-0.9,4.6-0.9c1,0,2,0.1,2.9,0.4c1,0.3,1.8,0.7,2.5,1.2
			c0.7,0.5,1.3,1.2,1.8,1.9s0.7,1.6,0.7,2.6v4.5c-2.6-1.1-5.2-1.6-8.1-1.6c-1.6,0-3.2,0.2-4.8,0.7s-2.9,1.1-4,2
			c-1.2,0.9-2.1,2-2.8,3.3c-0.7,1.3-1.1,3-1.1,4.8c0,1.8,0.3,3.4,0.9,4.7c0.6,1.3,1.5,2.4,2.5,3.3c1.1,0.9,2.3,1.5,3.8,2
			c1.5,0.4,3.1,0.7,4.8,0.7C115.8,46.8,118.1,46.7,120.4,46.3 M158.2,41.1c0.6-1.3,1-2.7,1-4.4c0-1.7-0.3-3.1-1-4.3
			c-0.7-1.2-1.5-2.1-2.5-2.9c-1-0.8-2.2-1.4-3.5-1.8c-1.3-0.4-2.6-0.8-3.9-1c-0.7-0.1-1.6-0.3-2.4-0.5c-0.9-0.2-1.7-0.5-2.5-0.8
			c-0.8-0.3-1.4-0.8-1.9-1.4c-0.5-0.6-0.8-1.4-0.8-2.4c0-1,0.2-1.7,0.7-2.4c0.5-0.6,1-1.1,1.8-1.5c0.7-0.4,1.5-0.7,2.3-0.8
			c0.8-0.2,1.6-0.2,2.3-0.2c1.2,0,2.4,0.2,3.6,0.6c1.2,0.4,2.3,1.2,3.4,2.3l3.2-3.7c-1.4-1.4-3-2.4-4.8-3.1c-1.8-0.7-3.6-1-5.4-1
			c-1.4,0-2.8,0.2-4.3,0.6c-1.5,0.4-2.8,0.9-3.9,1.7c-1.2,0.8-2.1,1.8-2.9,3.1c-0.8,1.3-1.1,2.8-1.1,4.6c0,1.8,0.4,3.3,1.1,4.5
			c0.7,1.1,1.6,2.1,2.8,2.8c1.1,0.7,2.4,1.3,3.8,1.7c1.4,0.4,2.8,0.7,4.2,0.9c0.7,0.1,1.5,0.3,2.3,0.5c0.8,0.2,1.5,0.5,2.1,0.9
			c0.7,0.4,1.2,0.8,1.6,1.4c0.4,0.6,0.6,1.3,0.6,2.2c0,0.9-0.2,1.6-0.5,2.3c-0.3,0.7-0.8,1.2-1.4,1.7c-0.6,0.5-1.3,0.8-2,1
			c-0.7,0.2-1.5,0.4-2.3,0.4c-1.7,0-3.5-0.4-5.3-1.2c-1.8-0.8-3.2-2-4.4-3.7l-3.9,2.7c1.6,2.6,3.7,4.4,6,5.5c2.4,1,4.9,1.6,7.5,1.6
			c1.4,0,2.8-0.2,4.2-0.6c1.4-0.4,2.6-1,3.6-1.9C156.6,43.4,157.5,42.4,158.2,41.1 M186.4,35.6c0,1-0.2,2-0.7,2.7
			c-0.5,0.8-1.1,1.4-1.8,2c-0.8,0.5-1.6,0.9-2.5,1.2c-0.9,0.3-1.8,0.4-2.7,0.4c-1,0-1.9-0.1-2.8-0.4c-0.9-0.3-1.8-0.7-2.5-1.2
			c-0.8-0.5-1.4-1.2-1.8-2c-0.5-0.8-0.7-1.7-0.7-2.7V22.9c0-1,0.2-2,0.7-2.7c0.5-0.8,1.1-1.4,1.8-2c0.8-0.5,1.6-0.9,2.5-1.1
			c0.9-0.2,1.9-0.4,2.8-0.4c0.9,0,1.8,0.1,2.7,0.4c0.9,0.2,1.7,0.6,2.5,1.1c0.8,0.5,1.4,1.2,1.8,2c0.5,0.8,0.7,1.7,0.7,2.7V35.6z
			 M190.5,40.5c0.7-1.4,1.1-3,1.1-4.9V23.1c0-1.9-0.4-3.5-1.1-4.9c-0.7-1.4-1.7-2.6-2.9-3.5c-1.2-0.9-2.6-1.6-4.2-2.1
			c-1.6-0.5-3.1-0.7-4.8-0.7c-1.6,0-3.3,0.2-4.8,0.7c-1.6,0.5-2.9,1.2-4.2,2.1c-1.2,0.9-2.2,2.1-3,3.5c-0.8,1.4-1.1,3-1.1,4.9v12.5
			c0,1.9,0.4,3.6,1.1,4.9c0.8,1.4,1.7,2.5,3,3.5s2.6,1.6,4.2,2.1c1.6,0.5,3.2,0.7,4.8,0.7c1.6,0,3.2-0.2,4.8-0.7
			c1.6-0.5,2.9-1.2,4.2-2.1C188.8,43,189.8,41.9,190.5,40.5 M207.3,6.7c1.3-1.1,3.1-1.6,5.4-1.6V0c-1.8,0-3.4,0.2-4.9,0.7
			c-1.5,0.5-2.8,1.2-4,2.1c-1.1,0.9-2,2.1-2.7,3.5c-0.6,1.4-1,3-1,4.9v34.9h5.2V20.8h6.9v-4.7h-6.9v-4.8
			C205.4,9.3,206,7.8,207.3,6.7 M223.8,35.7V20.9h6.9v-4.8h-6.9v-11h-5.1v30.6c0,1.7,0.3,3.3,0.9,4.7c0.6,1.4,1.4,2.5,2.4,3.5
			c1,1,2.3,1.7,3.7,2.2c1.5,0.5,3,0.7,4.7,0.7c0.3,0,0.7,0,1,0c0.3,0,0.7-0.1,1-0.1v-4.5c-1.3,0.3-2.6,0.3-3.6,0s-2-0.7-2.7-1.4
			s-1.3-1.4-1.7-2.3C224,37.6,223.8,36.7,223.8,35.7"/>
	</g>
	<g>
		<path class="st2" d="M343.4,56.7h-1.7l-3.1,4.8l-3.1-4.8h-1.7l3.9,6.3v5.4h1.6V63L343.4,56.7z M330.2,68.6c1.2,0,2.4-0.3,3.2-0.7
			l-0.2-1.5c-0.9,0.3-1.9,0.7-3,0.7c-2.7,0-4.1-2.1-4.1-4.6c0-2.6,1.4-4.6,4.1-4.6c1.2,0,2.1,0.4,3.1,0.7l0.2-1.5
			c-0.8-0.4-2.1-0.7-3.2-0.7c-3.4,0-5.8,2.4-5.8,6.1C324.4,66.2,326.8,68.6,330.2,68.6 M322.4,68.3V56.7h-1.6v8.7l-5.7-8.7h-1.7
			v11.7h1.6v-9.2l6.1,9.2C321,68.3,322.4,68.3,322.4,68.3z M311.4,68.3v-1.4h-5.7V63h4.4v-1.4h-4.4v-3.4h5.5v-1.4h-7.1v11.7
			L311.4,68.3L311.4,68.3z M301.4,56.7h-1.6v11.7h1.6V56.7z M294.8,68.6c1.2,0,2.4-0.3,3.2-0.7l-0.2-1.5c-0.9,0.3-1.9,0.7-3,0.7
			c-2.7,0-4.1-2.1-4.1-4.6c0-2.6,1.4-4.6,4.1-4.6c1.2,0,2.1,0.4,3.1,0.7l0.2-1.5c-0.8-0.4-2-0.7-3.2-0.7c-3.4,0-5.8,2.4-5.8,6.1
			C288.9,66.2,291.4,68.6,294.8,68.6 M286.9,56.7h-1.6v11.7h1.6V56.7z M283.8,58.1v-1.4h-7.1v11.7h1.6V63h4.3v-1.4h-4.3v-3.4
			L283.8,58.1L283.8,58.1z M275,58.1v-1.4h-7.1v11.7h1.6V63h4.3v-1.4h-4.3v-3.4L275,58.1L275,58.1z M266,68.3v-1.4h-5.7V63h4.4v-1.4
			h-4.4v-3.4h5.5v-1.4h-7.1v11.7L266,68.3L266,68.3z M253.4,58.1v-1.4H245v1.4h3.4v10.2h1.6V58.1H253.4z M243.4,68.3V56.7h-1.6v8.7
			l-5.7-8.7h-1.7v11.7h1.6v-9.2l6.1,9.2C242.1,68.3,243.4,68.3,243.4,68.3z M232.4,68.3v-1.4h-5.7V63h4.4v-1.4h-4.4v-3.4h5.5v-1.4
			h-7.1v11.7L232.4,68.3L232.4,68.3z M223.1,68.3l-1.6-11.7h-1.4l-3,5.8l-3.1-5.8h-1.3l-1.6,11.7h1.7l1.1-8.8l3.2,6l3.2-6l1.1,8.8
			H223.1z M209.7,68.3v-1.4h-5.7V63h4.4v-1.4h-4.4v-3.4h5.5v-1.4h-7.1v11.7L209.7,68.3L209.7,68.3z M196.3,68.6c1.3,0,3.1-0.4,4-0.9
			v-5.2h-3.4v1.4h1.8v2.9c-0.6,0.2-1.4,0.3-1.9,0.3c-3,0-4.4-2-4.4-4.6c0-2.6,1.3-4.6,4.2-4.6c1.1,0,2.3,0.3,3.3,0.6l0.1-1.4
			c-0.9-0.4-2.3-0.7-3.5-0.7c-3.4,0-5.8,2.4-5.8,6C190.6,66.2,193.1,68.6,196.3,68.6z M186.7,63.8h-3.5l1.7-4.9L186.7,63.8z
			 M190,68.3l-4.2-11.7h-1.7L180,68.3h1.7l1.1-3.1h4.5l1.1,3.1H190z M178.6,68.3V56.7H177v8.7l-5.8-8.7h-1.7v11.7h1.6v-9.2l6.1,9.2
			C177.2,68.3,178.6,68.3,178.6,68.3z M164.8,63.8h-3.5l1.7-4.9L164.8,63.8z M168.1,68.3l-4.2-11.7h-1.7L158,68.3h1.7l1.1-3.1h4.5
			l1.1,3.1H168.1z M157.1,68.3l-1.5-11.7h-1.4l-3,5.8l-3.1-5.8h-1.4l-1.6,11.7h1.7l1.1-8.8l3.2,6l3.2-6l1.1,8.8H157.1z M135.7,58
			c1.6,0,2.4,0.8,2.4,2.1c0,1.6-1.1,2.2-2,2.2h-2.5V58H135.7z M140.3,68.3l-2.7-5c1.4-0.6,2.1-1.8,2.1-3.3c0-2.6-1.6-3.4-4-3.4h-3.8
			v11.7h1.7v-4.5h2.5l2.6,4.5H140.3z M124.2,57.9c2.7,0,4,2.1,4,4.6c0,2.6-1.4,4.6-4,4.6c-2.7,0-4-2.1-4-4.6
			C120.2,59.9,121.5,57.9,124.2,57.9 M124.2,68.6c3.3,0,5.7-2.4,5.7-6.1c0-3.7-2.4-6.1-5.7-6.1c-3.3,0-5.7,2.4-5.7,6.1
			C118.5,66.2,120.9,68.6,124.2,68.6 M117.7,58.1v-1.4h-7.1v11.7h1.6V63h4.3v-1.4h-4.3v-3.4L117.7,58.1L117.7,58.1z M100.4,68.6
			c4,0,4.5-2,4.5-3.2c0-2.5-2.2-3.1-4.3-3.8c-1.4-0.4-2.5-0.9-2.5-1.9c0-1.2,1.4-1.7,2.6-1.7c1.2,0,2.2,0.5,3.3,1.1l0.2-1.7
			c-0.7-0.4-2.1-0.8-3.7-0.8c-3.2,0-4.2,1.9-4.2,3.4c0,2,1.9,2.6,3.8,3.2c1.7,0.5,3,1,3,2.4c0,1.3-1.3,1.8-2.8,1.8
			c-1.6,0-2.9-0.6-3.6-1.2l-0.2,1.9C97.3,68.2,98.7,68.6,100.4,68.6 M94.4,68.3V56.7h-1.6v8.7l-5.7-8.7h-1.7v11.7H87v-9.2l6.1,9.2
			C93.1,68.3,94.4,68.3,94.4,68.3z M77.7,57.9c2.7,0,4,2.1,4,4.6c0,2.6-1.3,4.6-4,4.6s-4-2.1-4-4.6C73.6,59.9,75,57.9,77.7,57.9
			 M77.7,68.6c3.3,0,5.7-2.4,5.7-6.1c0-3.7-2.4-6.1-5.7-6.1s-5.7,2.4-5.7,6.1C71.9,66.2,74.3,68.6,77.7,68.6 M69.9,56.7h-1.6v11.7
			h1.6V56.7z M66.8,58.1v-1.4h-8.4v1.4h3.4v10.2h1.6V58.1H66.8z M52.1,68.6c3.3,0,4.8-2,4.8-5.2v-6.7h-1.6v5.9
			c0,2.3-0.5,4.5-3.3,4.5c-2.8,0-3.2-2.2-3.2-4.5v-5.9h-1.6v6.7C47.3,66.6,48.8,68.6,52.1,68.6 M46.3,68.3v-1.4H41V56.7h-1.6v11.7
			H46.3z M31.6,57.9c2.7,0,4,2.1,4,4.6c0,2.6-1.3,4.6-4,4.6c-2.7,0-4-2.1-4-4.6C27.6,59.9,29,57.9,31.6,57.9 M31.6,68.6
			c3.3,0,5.7-2.4,5.7-6.1c0-3.7-2.4-6.1-5.7-6.1c-3.3,0-5.7,2.4-5.7,6.1C25.9,66.2,28.3,68.6,31.6,68.6 M20.2,68.6
			c4,0,4.5-2,4.5-3.2c0-2.5-2.2-3.1-4.3-3.8c-1.4-0.4-2.5-0.9-2.5-1.9c0-1.2,1.4-1.7,2.6-1.7c1.2,0,2.2,0.5,3.3,1.1l0.2-1.7
			c-0.7-0.4-2.1-0.8-3.7-0.8c-3.2,0-4.2,1.9-4.2,3.4c0,2,1.9,2.6,3.8,3.2c1.7,0.5,3,1,3,2.4c0,1.3-1.4,1.8-2.8,1.8
			c-1.6,0-2.9-0.6-3.6-1.2l-0.2,1.9C17.1,68.2,18.5,68.6,20.2,68.6 M11.5,58.1v-1.4H3.2v1.4h3.4v10.2h1.6V58.1H11.5z M1.6,56.7H0
			v11.7h1.6V56.7z"/>
	</g>
</g>
</svg>
