<svg width="1574" height="183" viewBox="0 0 1574 183" fill="none" xmlns="http://www.w3.org/2000/svg">
<g clip-path="url(#clip0_10_1777)">
<path fill-rule="evenodd" clip-rule="evenodd" d="M96.5753 135.625V135.563L55.631 109.935C50.1991 106.771 43.8885 104.951 37.1496 104.951C16.8337 104.951 0.363281 121.42 0.363281 141.737C0.363281 162.053 16.8337 178.522 37.1496 178.522C43.8094 178.522 50.0502 176.744 55.4398 173.649L96.5753 147.91V147.85C98.7223 146.645 100.189 144.373 100.189 141.737C100.189 139.101 98.7223 136.829 96.5753 135.625Z" fill="#272142"/>
<path fill-rule="evenodd" clip-rule="evenodd" d="M146.419 63.9514L146.432 63.9312L51.9681 5.18376L51.946 5.21868C46.7218 1.93196 40.5546 0 33.926 0C15.1873 0 0 15.191 0 33.9279C0 46.163 6.49624 56.8522 16.2075 62.8209L16.1855 62.854L107.879 119.693C113.51 123.848 120.445 126.333 127.978 126.333C146.715 126.333 161.906 111.142 161.906 92.4051C161.906 80.4732 155.731 70.001 146.419 63.9514Z" fill="#272142"/>
<path fill-rule="evenodd" clip-rule="evenodd" d="M1420.67 144.254V9.63138H1411.09V72.8996C1408.35 67.4608 1404.12 63.129 1398.42 59.9042C1392.71 56.6553 1386.05 55.043 1378.4 55.043C1366.2 55.043 1356.14 59.1341 1348.27 67.3404C1340.41 75.4264 1336.46 86.7372 1336.46 100.599C1336.46 114.461 1340.41 125.483 1348.27 133.689C1356.14 141.775 1366.18 145.818 1378.4 145.818C1386.15 145.818 1392.92 144.182 1398.68 140.885C1404.43 137.588 1408.69 133.111 1411.42 127.456V144.254H1420.67ZM1355.29 73.5493C1361.45 66.9794 1369.43 63.6825 1379.25 63.6825C1388.95 63.6825 1396.66 66.6185 1402.36 72.5145C1408.07 78.4106 1410.92 86.7372 1410.92 97.4704V103.366C1410.92 114.1 1408.02 122.45 1402.27 128.395C1396.51 134.339 1389.07 137.323 1379.25 137.323C1369.43 137.323 1361.45 134.002 1355.29 127.36C1349.13 120.718 1346.04 111.717 1346.04 100.406C1346.04 89.0956 1349.13 80.1433 1355.29 73.5493ZM994.761 103.91V57.7153H967.525V108.044C967.525 129.614 977.314 144.354 999.209 144.354C1012.2 144.354 1021.64 139.141 1026.44 129.974V143.454C1026.44 156.936 1019.86 162.869 1009.89 162.869C999.566 162.869 995.471 158.554 994.936 151.184H967.525C967.704 160.53 971.977 168.621 978.205 174.01C985.326 179.943 995.293 183 1009.89 183C1024.31 183 1033.74 179.583 1041.39 172.933C1048.69 166.282 1053.68 155.678 1053.68 141.657V57.7153H1026.44V100.674C1026.44 113.977 1020.93 122.605 1009.89 122.605C998.498 122.605 994.761 115.054 994.761 103.91ZM797.945 101.035C797.945 73.713 781.927 55.379 758.43 55.379C745.613 55.379 734.933 61.8493 730.303 70.1186V57.7155H703.248V180.302H730.303V132.13C734.755 140.218 745.079 146.689 757.717 146.689C781.391 146.689 797.945 128.176 797.945 101.035ZM583.721 96.5414C583.721 72.0955 565.567 55.3777 538.865 55.3777C510.919 55.3777 492.583 72.633 492.583 101.035C492.583 129.973 510.562 146.689 539.755 146.689C562.539 146.689 579.807 135.367 582.477 118.291H555.775C553.461 123.682 548.12 126.019 539.755 126.019C527.65 126.019 520.174 119.907 519.64 108.582H583.009C583.545 103.73 583.721 101.035 583.721 96.5414ZM921.816 70.1186C917.188 61.3099 907.397 55.379 894.937 55.379C870.016 55.379 854.176 75.1518 854.176 101.035C854.176 127.097 868.95 146.689 894.582 146.689C906.508 146.689 917.188 140.758 921.816 132.13V144.354H948.871V57.7155H921.816V70.1186ZM265.499 57.7157V32.012H238.265V57.7157H224.736V79.4649H238.265V113.977C238.265 142.915 255.885 145.791 268.702 145.791C276.532 145.791 282.942 145.073 286.86 144.354V122.424C284.367 122.784 280.45 122.963 277.425 122.963C270.661 122.963 265.499 120.987 265.499 108.226V79.4649H284.901V57.7157H265.499ZM327.14 144.353V57.7148H300.085V144.353H327.14ZM479.005 90.6075C479.005 72.4545 473.13 55.3784 448.566 55.3784C435.927 55.3784 425.782 62.0297 421.153 71.3759C417.416 62.2107 409.583 55.3784 394.273 55.3784C382.349 55.3784 373.448 61.6695 369.711 70.2972V57.715H342.477V144.353H369.711V99.7763C369.711 83.4187 375.585 78.5665 384.306 78.5665C392.671 78.5665 396.944 83.4187 396.944 95.4616V144.353H424.359V99.7763C424.359 83.4187 430.233 78.5665 438.775 78.5665C447.143 78.5665 451.592 83.5997 451.592 95.6408V144.353H479.005V90.6075ZM689.542 55.5595C689.542 33.0899 672.988 19.429 645.219 19.429C617.093 19.429 598.582 36.6843 598.582 63.1084H627.952C627.952 49.4475 634.181 41.8986 645.397 41.8986C654.116 41.8986 659.992 47.8313 659.992 56.6381C659.992 64.9056 655.541 71.3759 646.643 76.0508L627.241 86.2946C604.989 97.9791 595.911 114.876 595.911 144.353H688.473V120.626H631.333C633.648 112.178 637.208 108.225 647.533 102.473L665.51 92.7649C681.173 84.4993 689.542 71.3759 689.542 55.5595ZM839.866 144.353V18.5312H812.632V144.353H839.866ZM729.237 101.035C729.237 87.553 737.601 78.386 749.886 78.386C761.812 78.386 770.177 87.7322 770.177 101.035C770.177 114.515 761.812 123.863 749.886 123.863C737.783 123.863 729.237 114.696 729.237 101.035ZM881.942 101.035C881.942 87.9132 889.775 78.386 902.414 78.386C915.943 78.386 922.884 88.6317 922.884 101.035C922.884 113.617 915.943 123.863 902.414 123.863C889.775 123.863 881.942 114.156 881.942 101.035ZM519.64 91.5081C519.82 80.9041 526.939 73.8927 538.687 73.8927C550.257 73.8927 556.664 80.0046 556.843 91.5081H519.64ZM1201.56 64.8865C1195.64 58.3166 1187.87 55.0196 1178.29 55.0196H1178.26C1171.42 55.0196 1165.33 56.7042 1159.96 60.1215C1154.58 63.5388 1150.66 68.1835 1148.14 74.0795C1145.64 68.0872 1141.82 63.3944 1136.68 60.0493C1131.55 56.7042 1125.48 55.0196 1118.87 55.0196C1112.27 55.0196 1106.49 56.5598 1101.59 59.6883C1096.69 62.8169 1093.15 66.7877 1090.99 71.6489V56.5839H1081.91V144.182H1091.53V91.5029C1091.53 83.9945 1093.86 77.5449 1098.55 72.1061C1103.35 66.6914 1109.63 63.972 1117.38 63.972C1124.58 63.972 1130.36 66.5229 1134.76 71.6008C1139.15 76.6786 1141.34 83.3207 1141.34 91.527V144.206H1151.09V91.527C1151.09 84.0186 1153.42 77.569 1158.1 72.1302C1162.79 66.7155 1169.35 63.9961 1176.77 63.9961C1184.18 63.9961 1190.08 66.4989 1194.48 71.5286C1198.88 76.5583 1201.06 83.2244 1201.06 91.5511V144.23H1210.64V90.1793C1210.64 79.783 1207.6 71.3601 1201.56 64.8865ZM1316.76 97.8303V104.063H1246.05C1246.17 114.219 1249.24 122.377 1255.3 128.49C1261.34 134.386 1268.83 137.322 1277.72 137.322C1285.26 137.322 1291.51 135.637 1296.45 132.292C1301.4 128.947 1304.7 124.206 1306.3 118.093L1315.88 118.791C1313.83 127.118 1309.43 133.688 1302.71 138.549C1295.98 143.41 1287.75 145.817 1278.05 145.817C1265.74 145.817 1255.63 141.774 1247.76 133.688C1239.89 125.482 1235.95 114.387 1235.95 100.429C1235.95 86.4714 1239.82 75.3532 1247.6 67.1709C1255.25 59.0849 1265.29 55.0419 1277.72 55.0419C1290.15 55.0419 1299.45 58.9646 1306.3 66.834C1313.26 74.5831 1316.73 84.9072 1316.73 97.8544L1316.76 97.8303ZM1277.55 63.7055C1268.42 63.7055 1261.01 66.5693 1255.3 72.2728C1249.59 78.0004 1246.5 85.8698 1246.05 95.9292H1307.34C1307.34 86.1104 1304.75 78.2892 1299.54 72.4412C1294.36 66.6174 1287.02 63.6814 1277.55 63.6814V63.7055ZM1452.99 18.2929C1454.82 15.9826 1457.08 15.3328 1459.75 16.2954C1462.43 17.2821 1464.12 19.0148 1464.79 21.4936C1465.47 23.9723 1464.83 26.2586 1462.91 28.3282C1461.53 29.724 1459.89 30.3978 1457.94 30.3978C1455.99 30.3978 1454.35 29.6999 1452.97 28.3282C1451.59 26.9564 1450.92 25.2719 1450.92 23.2985C1450.92 21.3251 1451.61 19.6646 1452.97 18.2688L1452.99 18.2929ZM1462.74 56.5811V144.252H1453.16V56.5811H1462.74ZM1551.16 60.0493C1545.41 56.7042 1538.64 55.0196 1530.88 55.0196V55.0437C1518.69 55.0437 1508.63 59.1348 1500.76 67.3412C1492.89 75.4272 1488.95 86.738 1488.95 100.6C1488.95 114.461 1492.89 125.483 1500.76 133.69C1508.63 141.776 1518.66 145.819 1530.88 145.819C1538.64 145.819 1545.41 144.182 1551.16 140.885C1556.92 137.588 1561.17 133.112 1563.91 127.457V144.254H1573.16V56.5839H1563.91V73.5741C1561.17 67.8947 1556.92 63.3944 1551.16 60.0493ZM1507.78 73.5501C1513.93 66.9802 1521.92 63.6832 1531.74 63.6832C1541.44 63.6832 1549.14 66.6192 1554.85 72.5153C1560.55 78.4113 1563.41 86.738 1563.41 97.4712V103.367C1563.41 114.1 1560.51 122.451 1554.75 128.395C1549 134.34 1541.56 137.324 1531.74 137.324C1521.92 137.324 1513.93 134.003 1507.78 127.361C1501.62 120.718 1498.53 111.718 1498.53 100.407C1498.53 89.0964 1501.62 80.144 1507.78 73.5501Z" fill="#272142"/>
</g>
<defs>
<clipPath id="clip0_10_1777">
<rect width="1573.16" height="183" fill="white"/>
</clipPath>
</defs>
</svg>
