<svg width="201" height="77" viewBox="0 0 201 77" fill="none" xmlns="http://www.w3.org/2000/svg">
<path d="M45.5088 3.82384C45.3369 3.88201 45.1986 4.0116 45.1294 4.1793L34.1571 30.7571C33.9443 31.2723 33.2159 31.2761 32.9978 30.763L25.5901 13.3331C25.4493 13.0017 25.0593 12.8562 24.7358 13.0143L22.3295 14.1904C22.1983 14.2545 22.0936 14.3623 22.0332 14.4952L14.6576 30.7367C14.4245 31.2501 13.6856 31.2205 13.4942 30.6901L10.2687 21.7494C10.1488 21.417 9.77864 21.2488 9.44945 21.377L0.602384 24.8238C0.27249 24.9523 0.113827 25.3278 0.251633 25.654L8.90427 46.1309C9.00258 46.3636 9.2306 46.5148 9.48316 46.5148H16.8913C17.1499 46.5148 17.3822 46.3563 17.4765 46.1155L23.148 31.6359C23.356 31.105 24.1065 31.1031 24.3172 31.6329L30.0327 46.0069C30.1485 46.2981 30.4611 46.4595 30.7655 46.3853L39.2277 44.3213C39.4268 44.2728 39.5897 44.1301 39.6642 43.9392L56.316 1.25588C56.51 0.758509 56.0348 0.261037 55.5291 0.432204L45.5088 3.82384Z" fill="black"/>
<path d="M62.7173 46.6056C71.2623 46.6056 77.4282 40.731 77.4282 32.623C77.4282 24.515 71.2623 18.6889 62.7173 18.6889C54.1724 18.6889 48.055 24.515 48.055 32.623C48.055 40.731 54.1724 46.6056 62.7173 46.6056ZM62.7173 38.4976C59.4644 38.4976 57.0854 36.1186 57.0854 32.6715C57.0854 29.1759 59.4644 26.7969 62.7173 26.7969C66.0188 26.7969 68.3978 29.2244 68.3978 32.6715C68.3978 36.1186 66.0188 38.4976 62.7173 38.4976Z" fill="black"/>
<path d="M96.2735 19.4172C93.5269 19.4172 91.4631 20.1 89.7468 21.7339C89.4194 22.0456 88.8685 21.9731 88.6717 21.5661L87.8516 19.8692C87.7467 19.6522 87.5268 19.5143 87.2858 19.5143H82.2396C81.8925 19.5143 81.6112 19.7956 81.6112 20.1427V45.1032C81.6112 45.4503 81.8925 45.7317 82.2396 45.7317H90.0132C90.3602 45.7317 90.6416 45.4503 90.6416 45.1032V32.4288C90.6416 29.0788 92.001 27.6708 95.1568 27.6708H98.0726C98.4197 27.6708 98.701 27.3894 98.701 27.0424V20.0456C98.701 19.6985 98.4197 19.4172 98.0726 19.4172H96.2735Z" fill="black"/>
<path d="M127.581 45.7317C128.081 45.7317 128.381 45.175 128.105 44.7572L119.945 32.3852C119.807 32.1759 119.806 31.9046 119.944 31.6948L127.285 20.4871C127.559 20.0691 127.259 19.5143 126.76 19.5143H118.129C117.909 19.5143 117.706 19.6286 117.592 19.816L112.678 27.8919C112.347 28.4347 111.512 28.2006 111.512 27.5653V10.6753C111.512 10.3282 111.231 10.0469 110.884 10.0469H103.11C102.763 10.0469 102.482 10.3282 102.482 10.6753V32.0404V45.1032C102.482 45.4503 102.763 45.7317 103.11 45.7317H110.884C111.231 45.7317 111.512 45.4503 111.512 45.1032V36.957C111.512 36.3176 112.356 36.0867 112.682 36.6368L117.884 45.4234C117.997 45.6145 118.203 45.7317 118.425 45.7317H127.581Z" fill="black"/>
<path d="M38.9628 76.9999C45.9541 76.9999 50.5664 73.4072 50.5664 67.9209C50.5664 61.318 45.0802 60.4441 40.9048 59.7159C38.4287 59.2789 36.4382 58.8905 36.4382 57.434C36.4382 56.2202 37.4092 55.4919 38.8657 55.4919C40.2501 55.4919 41.272 56.0719 41.5242 57.2945C41.5944 57.6345 41.8659 57.9195 42.213 57.9195H49.4408C49.7924 57.9195 50.0779 57.6297 50.0477 57.2794C49.6228 52.3436 45.3424 49.0832 38.9628 49.0832C32.2628 49.0832 27.7476 52.4818 27.7476 57.7253C27.7476 64.0854 33.1367 65.2992 37.215 65.9789C39.7396 66.3673 41.7302 66.8043 41.7302 68.3093C41.7302 69.6688 40.4679 70.3485 39.157 70.3485C37.6525 70.3485 36.4145 69.6634 36.1504 68.1586C36.0904 67.8168 35.8169 67.5325 35.4699 67.5325H28.047C27.6957 67.5325 27.4107 67.8216 27.437 68.1719C27.8373 73.4954 32.0971 76.9999 38.9628 76.9999Z" fill="black"/>
<path d="M68.7874 68.2608C66.8939 68.2608 65.7287 67.0956 65.7287 65.2506V57.5284C65.7287 57.1813 66.01 56.8999 66.3571 56.8999H71.4604C71.8075 56.8999 72.0888 56.6185 72.0888 56.2715V50.537C72.0888 50.19 71.8075 49.9086 71.4604 49.9086H66.1629C65.8158 49.9086 65.5345 49.6272 65.5345 49.2802V42.9146C65.5345 42.5675 65.2531 42.2861 64.906 42.2861H63.9124C63.7392 42.2861 63.5737 42.3576 63.4549 42.4838L52.0626 54.5822C51.9528 54.6988 51.8917 54.8529 51.8917 55.013V56.2715C51.8917 56.6185 52.1731 56.8999 52.5202 56.8999H56.0698C56.4169 56.8999 56.6982 57.1813 56.6982 57.5284V66.7557C56.6982 72.5818 60.2424 76.126 66.02 76.126H71.606C71.9531 76.126 72.2345 75.8446 72.2345 75.4976V68.8892C72.2345 68.5422 71.9531 68.2608 71.606 68.2608H68.7874Z" fill="black"/>
<path d="M97.8033 49.9086C97.5564 49.9086 97.3324 50.0531 97.2307 50.278L96.8173 51.1917C96.6457 51.5712 96.1588 51.6814 95.8218 51.4367C93.7872 49.9593 91.2637 49.1318 88.4645 49.1318C80.4536 49.1318 74.7246 54.9093 74.7246 63.0173C74.7246 71.1738 80.4536 76.9999 88.4645 76.9999C91.2122 76.9999 93.6857 76.2163 95.7089 74.7899C96.052 74.5479 96.5416 74.6691 96.7046 75.0561L96.9931 75.7414C97.0912 75.9745 97.3195 76.126 97.5723 76.126H103.518C103.865 76.126 104.146 75.8446 104.146 75.4976V50.537C104.146 50.19 103.865 49.9086 103.518 49.9086H97.8033ZM89.6782 69.0376C86.2797 69.0376 83.8036 66.4644 83.8036 63.0173C83.8036 59.6188 86.2797 57.0941 89.6782 57.0941C93.0768 57.0941 95.5529 59.6188 95.5529 63.0173C95.5529 66.4644 93.0768 69.0376 89.6782 69.0376Z" fill="black"/>
<path d="M124.508 49.8115C121.761 49.8115 119.697 50.4943 117.981 52.1283C117.654 52.44 117.103 52.3675 116.906 51.9605L116.086 50.2636C115.981 50.0465 115.761 49.9086 115.52 49.9086H110.474C110.127 49.9086 109.845 50.19 109.845 50.537V75.4976C109.845 75.8446 110.127 76.126 110.474 76.126H118.247C118.594 76.126 118.876 75.8446 118.876 75.4976V62.8231C118.876 59.4731 120.235 58.0651 123.391 58.0651H126.307C126.654 58.0651 126.935 57.7838 126.935 57.4367V50.4399C126.935 50.0929 126.654 49.8115 126.307 49.8115H124.508Z" fill="black"/>
<path d="M144.98 68.2608C143.086 68.2608 141.921 67.0956 141.921 65.2506V57.5284C141.921 57.1813 142.202 56.8999 142.55 56.8999H147.653C148 56.8999 148.281 56.6185 148.281 56.2715V50.537C148.281 50.19 148 49.9086 147.653 49.9086H142.355C142.008 49.9086 141.727 49.6272 141.727 49.2802V42.9146C141.727 42.5675 141.446 42.2861 141.098 42.2861H140.105C139.932 42.2861 139.766 42.3576 139.647 42.4838L128.255 54.5822C128.145 54.6988 128.084 54.8529 128.084 55.013V56.2715C128.084 56.6185 128.366 56.8999 128.713 56.8999H132.262C132.609 56.8999 132.891 57.1813 132.891 57.5284V66.7557C132.891 72.5818 136.435 76.126 142.212 76.126H147.798C148.146 76.126 148.427 75.8446 148.427 75.4976V68.8892C148.427 68.5422 148.146 68.2608 147.798 68.2608H144.98Z" fill="black"/>
<path d="M179.416 62.7746C179.416 55.1035 173.59 49.0832 165.142 49.0832C156.889 49.0832 150.917 55.0064 150.917 63.0173C150.917 71.0282 156.937 76.9999 165.142 76.9999C171.396 76.9999 176.545 73.5963 178.607 68.0966C178.755 67.7004 178.453 67.2898 178.03 67.2898H170.23C169.997 67.2898 169.787 67.4204 169.659 67.6146C168.767 68.9711 167.08 69.7659 165.142 69.7659C162.523 69.7659 160.716 68.4668 159.98 65.9431C159.87 65.5639 160.169 65.2021 160.564 65.2021H178.712C179.03 65.2021 179.3 64.9636 179.329 64.6463C179.387 64.0215 179.416 63.4125 179.416 62.7746ZM165.142 56.1717C167.573 56.1717 169.344 57.297 170.247 59.4091C170.413 59.7953 170.11 60.2014 169.69 60.2014H160.774C160.359 60.2014 160.056 59.8033 160.213 59.4181C161.071 57.3003 162.795 56.1717 165.142 56.1717Z" fill="black"/>
<path d="M198.187 49.8115C195.441 49.8115 193.377 50.4943 191.661 52.1283C191.333 52.44 190.782 52.3675 190.586 51.9605L189.765 50.2636C189.66 50.0465 189.441 49.9086 189.2 49.9086H184.153C183.806 49.9086 183.525 50.19 183.525 50.537V75.4976C183.525 75.8446 183.806 76.126 184.153 76.126H191.927C192.274 76.126 192.555 75.8446 192.555 75.4976V62.8231C192.555 59.4731 193.915 58.0651 197.071 58.0651H199.986C200.333 58.0651 200.615 57.7838 200.615 57.4367V50.4399C200.615 50.0929 200.333 49.8115 199.986 49.8115H198.187Z" fill="black"/>
</svg>
